<?xml version="1.0" encoding="UTF-8" standalone="no"?>
<!-- Created with Inkscape (http://www.inkscape.org/) -->
<svg
   xmlns:svg="http://www.w3.org/2000/svg"
   xmlns="http://www.w3.org/2000/svg"
   version="1.0"
   width="37"
   height="37"
   id="svg2453">
  <defs
     id="defs2455" />
  <g
     transform="translate(5.0625,-652.875)"
     id="layer1">
    <path
       d="M 12.9375,652.875 L 12.9375,656.595 C 12.9375,656.595 18.3375,659.375 18.3375,659.375 C 18.3375,659.375 6.3375,665.375 6.3375,665.375 C 6.3375,665.375 18.3375,671.375 18.3375,671.375 C 18.3375,671.375 6.3375,677.375 6.3375,677.375 C 6.3375,677.375 18.3375,683.375 18.3375,683.375 C 18.3375,683.375 12.9375,686.155 12.9375,686.155 C 12.9375,686.155 12.9375,689.875 12.9375,689.875 C 12.9375,689.875 13.895074,689.91743 13.9375,689.875 C 13.9375,689.875 13.9375,686.595 13.9375,686.595 C 13.9375,686.595 20.5375,683.375 20.5375,683.375 C 20.5375,683.375 8.5375,677.375 8.5375,677.375 C 8.5375,677.375 20.5375,671.375 20.5375,671.375 C 20.5375,671.375 8.5375,665.375 8.5375,665.375 C 8.5375,665.375 20.5375,659.375 20.5375,659.375 C 20.5375,659.375 13.9375,656.155 13.9375,656.155 C 13.9375,656.155 13.9375,652.875 13.9375,652.875 L 12.9375,652.875 z"
       id="path2463"
       style="fill:#000000;fill-opacity:1;fill-rule:evenodd;stroke:none;stroke-width:5;stroke-linecap:butt;stroke-linejoin:miter;stroke-miterlimit:4;stroke-dasharray:none;stroke-opacity:1" />
  </g>
</svg>
