<?xml version="1.0" encoding="UTF-8" standalone="no"?>
<!-- Created with Inkscape (http://www.inkscape.org/) -->

<svg
   version="1.1"
   id="svg136269"
   width="164"
   height="146"
   viewBox="0 0 164 146"
   sodipodi:docname="IGBT_symbol.svg"
   inkscape:version="1.1.2 (08b2f3d93c, 2022-04-05)"
   xmlns:inkscape="http://www.inkscape.org/namespaces/inkscape"
   xmlns:sodipodi="http://sodipodi.sourceforge.net/DTD/sodipodi-0.dtd"
   xmlns="http://www.w3.org/2000/svg"
   xmlns:svg="http://www.w3.org/2000/svg">
  <defs
     id="defs136273">
    <marker
       style="overflow:visible;"
       id="Arrow2Mend"
       refX="0.0"
       refY="0.0"
       orient="auto"
       inkscape:stockid="Arrow2Mend"
       inkscape:isstock="true">
      <path
         transform="scale(0.6) rotate(180) translate(0,0)"
         d="M 8.7185878,4.0337352 L -2.2072895,0.016013256 L 8.7185884,-4.0017078 C 6.9730900,-1.6296469 6.9831476,1.6157441 8.7185878,4.0337352 z "
         style="stroke:context-stroke;fill-rule:evenodd;fill:context-stroke;stroke-width:0.62500000;stroke-linejoin:round;"
         id="path136517" />
    </marker>
    <marker
       style="overflow:visible;"
       id="Arrow1Send"
       refX="0.0"
       refY="0.0"
       orient="auto"
       inkscape:stockid="Arrow1Send"
       inkscape:isstock="true">
      <path
         transform="scale(0.2) rotate(180) translate(6,0)"
         style="fill-rule:evenodd;fill:context-stroke;stroke:context-stroke;stroke-width:1.0pt;"
         d="M 0.0,0.0 L 5.0,-5.0 L -12.5,0.0 L 5.0,5.0 L 0.0,0.0 z "
         id="path136505" />
    </marker>
    <marker
       style="overflow:visible;"
       id="marker136824"
       refX="0.0"
       refY="0.0"
       orient="auto"
       inkscape:stockid="Arrow2Lend"
       inkscape:isstock="true">
      <path
         transform="scale(1.1) rotate(180) translate(1,0)"
         d="M 8.7185878,4.0337352 L -2.2072895,0.016013256 L 8.7185884,-4.0017078 C 6.9730900,-1.6296469 6.9831476,1.6157441 8.7185878,4.0337352 z "
         style="stroke:context-stroke;fill-rule:evenodd;fill:context-stroke;stroke-width:0.62500000;stroke-linejoin:round;"
         id="path136822" />
    </marker>
    <marker
       style="overflow:visible;"
       id="Arrow1Mend"
       refX="0.0"
       refY="0.0"
       orient="auto"
       inkscape:stockid="Arrow1Mend"
       inkscape:isstock="true">
      <path
         transform="scale(0.4) rotate(180) translate(10,0)"
         style="fill-rule:evenodd;fill:context-stroke;stroke:context-stroke;stroke-width:1.0pt;"
         d="M 0.0,0.0 L 5.0,-5.0 L -12.5,0.0 L 5.0,5.0 L 0.0,0.0 z "
         id="path136499" />
    </marker>
    <marker
       style="overflow:visible"
       id="Scissors"
       refX="0.0"
       refY="0.0"
       orient="auto"
       inkscape:stockid="Scissors"
       inkscape:isstock="true">
      <path
         style="fill:context-stroke;"
         d="M 9.0898857,-3.6061018 C 8.1198849,-4.7769976 6.3697607,-4.7358294 5.0623558,-4.2327734 L -3.1500488,-1.1548705 C -5.5383421,-2.4615840 -7.8983361,-2.0874077 -7.8983361,-2.7236578 C -7.8983361,-3.2209742 -7.4416699,-3.1119800 -7.5100293,-4.4068519 C -7.5756648,-5.6501286 -8.8736064,-6.5699315 -10.100428,-6.4884954 C -11.327699,-6.4958500 -12.599867,-5.5553341 -12.610769,-4.2584343 C -12.702194,-2.9520479 -11.603560,-1.7387447 -10.304005,-1.6532027 C -8.7816644,-1.4265411 -6.0857470,-2.3487593 -4.8210600,-0.082342643 C -5.7633447,1.6559151 -7.4350844,1.6607341 -8.9465707,1.5737277 C -10.201445,1.5014928 -11.708664,1.8611256 -12.307219,3.0945882 C -12.885586,4.2766744 -12.318421,5.9591904 -10.990470,6.3210002 C -9.6502788,6.8128279 -7.8098011,6.1912892 -7.4910978,4.6502760 C -7.2454393,3.4624530 -8.0864637,2.9043186 -7.7636052,2.4731223 C -7.5199917,2.1477623 -5.9728246,2.3362771 -3.2164999,1.0982979 L 5.6763468,4.2330688 C 6.8000164,4.5467672 8.1730685,4.5362646 9.1684433,3.4313614 L -0.051640930,-0.053722219 L 9.0898857,-3.6061018 z M -9.2179159,-5.5066058 C -7.9233569,-4.7838060 -8.0290767,-2.8230356 -9.3743431,-2.4433169 C -10.590861,-2.0196559 -12.145370,-3.2022863 -11.757521,-4.5207817 C -11.530373,-5.6026336 -10.104134,-6.0014137 -9.2179159,-5.5066058 z M -9.1616516,2.5107591 C -7.8108215,3.0096239 -8.0402087,5.2951947 -9.4138723,5.6023681 C -10.324932,5.9187072 -11.627422,5.4635705 -11.719569,4.3902287 C -11.897178,3.0851737 -10.363484,1.9060805 -9.1616516,2.5107591 z "
         id="schere" />
    </marker>
    <marker
       style="overflow:visible"
       id="Tail"
       refX="0.0"
       refY="0.0"
       orient="auto"
       inkscape:stockid="Tail"
       inkscape:isstock="true">
      <g
         transform="scale(-1.2)"
         id="g136538">
        <path
           style="fill:none;fill-rule:evenodd;stroke:context-stroke;stroke-width:0.8;stroke-linecap:round"
           d="M -3.8048674,-3.9585227 L 0.54352094,0"
           id="path136526" />
        <path
           style="fill:none;fill-rule:evenodd;stroke:context-stroke;stroke-width:0.8;stroke-linecap:round"
           d="M -1.2866832,-3.9585227 L 3.0617053,0"
           id="path136528" />
        <path
           style="fill:none;fill-rule:evenodd;stroke:context-stroke;stroke-width:0.8;stroke-linecap:round"
           d="M 1.3053582,-3.9585227 L 5.6537466,0"
           id="path136530" />
        <path
           style="fill:none;fill-rule:evenodd;stroke:context-stroke;stroke-width:0.8;stroke-linecap:round"
           d="M -3.8048674,4.1775838 L 0.54352094,0.21974226"
           id="path136532" />
        <path
           style="fill:none;fill-rule:evenodd;stroke:context-stroke;stroke-width:0.8;stroke-linecap:round"
           d="M -1.2866832,4.1775838 L 3.0617053,0.21974226"
           id="path136534" />
        <path
           style="fill:none;fill-rule:evenodd;stroke:context-stroke;stroke-width:0.8;stroke-linecap:round"
           d="M 1.3053582,4.1775838 L 5.6537466,0.21974226"
           id="path136536" />
      </g>
    </marker>
    <marker
       style="overflow:visible;"
       id="Arrow1Lend"
       refX="0.0"
       refY="0.0"
       orient="auto"
       inkscape:stockid="Arrow1Lend"
       inkscape:isstock="true">
      <path
         transform="scale(0.8) rotate(180) translate(12.5,0)"
         style="fill-rule:evenodd;fill:context-stroke;stroke:context-stroke;stroke-width:1.0pt;"
         d="M 0.0,0.0 L 5.0,-5.0 L -12.5,0.0 L 5.0,5.0 L 0.0,0.0 z "
         id="path136493" />
    </marker>
    <marker
       style="overflow:visible;"
       id="Arrow2Lend"
       refX="0.0"
       refY="0.0"
       orient="auto"
       inkscape:stockid="Arrow2Lend"
       inkscape:isstock="true">
      <path
         transform="scale(1.1) rotate(180) translate(1,0)"
         d="M 8.7185878,4.0337352 L -2.2072895,0.016013256 L 8.7185884,-4.0017078 C 6.9730900,-1.6296469 6.9831476,1.6157441 8.7185878,4.0337352 z "
         style="stroke:context-stroke;fill-rule:evenodd;fill:context-stroke;stroke-width:0.62500000;stroke-linejoin:round;"
         id="path136511" />
    </marker>
    <marker
       style="overflow:visible"
       id="Arrow1Lstart"
       refX="0.0"
       refY="0.0"
       orient="auto"
       inkscape:stockid="Arrow1Lstart"
       inkscape:isstock="true">
      <path
         transform="scale(0.8) translate(12.5,0)"
         style="fill-rule:evenodd;fill:context-stroke;stroke:context-stroke;stroke-width:1.0pt"
         d="M 0.0,0.0 L 5.0,-5.0 L -12.5,0.0 L 5.0,5.0 L 0.0,0.0 z "
         id="path136490" />
    </marker>
  </defs>
  <sodipodi:namedview
     id="namedview136271"
     pagecolor="#505050"
     bordercolor="#eeeeee"
     borderopacity="1"
     inkscape:pageshadow="0"
     inkscape:pageopacity="0"
     inkscape:pagecheckerboard="0"
     showgrid="false"
     inkscape:snap-page="true"
     inkscape:object-paths="true"
     inkscape:zoom="2.0438292"
     inkscape:cx="90.51637"
     inkscape:cy="74.125568"
     inkscape:window-width="1848"
     inkscape:window-height="1016"
     inkscape:window-x="72"
     inkscape:window-y="27"
     inkscape:window-maximized="1"
     inkscape:current-layer="g136275" />
  <g
     inkscape:groupmode="layer"
     inkscape:label="Image"
     id="g136275">
    <path
       style="fill:none;stroke:#010505;stroke-width:3;stroke-linecap:butt;stroke-linejoin:miter;stroke-opacity:1;marker-mid:url(#Arrow1Lstart);marker-end:;stroke-miterlimit:4;stroke-dasharray:none"
       d="M 69.086313,96.368485 99.503377,126.78555"
       id="path136375" />
    <path
       style="fill:none;stroke:#000000;stroke-width:3;stroke-linecap:butt;stroke-linejoin:miter;stroke-opacity:1;stroke-miterlimit:4;stroke-dasharray:none"
       d="M 69.086313,24.866036 V 113.96637"
       id="path136369" />
    <path
       style="fill:none;stroke:#000000;stroke-width:3;stroke-linecap:butt;stroke-linejoin:miter;stroke-opacity:1;stroke-miterlimit:4;stroke-dasharray:none"
       d="M 56.945214,47.087123 V 93.078225 H 37.060544"
       id="path136371" />
    <path
       style="fill:none;stroke:#000000;stroke-width:3;stroke-linecap:butt;stroke-linejoin:miter;stroke-opacity:1;stroke-miterlimit:4;stroke-dasharray:none"
       d="M 101.89279,0 V 9.9543794 L 69.086313,42.760852"
       id="path136373" />
    <path
       style="fill:none;stroke:#000000;stroke-width:3;stroke-linecap:butt;stroke-linejoin:miter;stroke-miterlimit:4;stroke-dasharray:none;stroke-opacity:1"
       d="m 101.89279,129.30071 0,16.69929"
       id="path137069"
       sodipodi:nodetypes="cc" />
    <g
       aria-label="G"
       id="text141121"
       style="font-weight:bold;font-size:20px;font-family:FreeSans;-inkscape-font-specification:'FreeSans Bold';letter-spacing:0px">
      <path
         d="m 11.621427,92.840757 q 0,0.76 0.14,1.54 0.14,0.76 0.5,1.6 0.36,0.84 0.92,1.48 0.58,0.62 1.52,1.04 0.94,0.4 2.14,0.4 2,0 3.28,-1.26 1.3,-1.26 1.3,-3.22 v -0.4 h -4.44 v -1.64 h 6.08 v 7.780003 h -1.18 l -0.46,-1.940003 q -2.08,2.320003 -4.98,2.320003 -2.96,0 -4.82,-2.120003 -1.8600003,-2.12 -1.8600003,-5.48 0,-0.96 0.18,-1.92 0.1800003,-0.98 0.6800003,-2.04 0.5,-1.06 1.24,-1.86 0.76,-0.8 2.02,-1.32 1.28,-0.54 2.88,-0.54 2.5,0 4.1,1.22 1.62,1.22 2,3.44 h -1.9 q -0.3,-1.4 -1.44,-2.2 -1.12,-0.82 -2.78,-0.82 -2.32,0 -3.72,1.64 -1.4,1.62 -1.4,4.3 z"
         style="-inkscape-font-specification:FreeSans"
         id="path166680" />
    </g>
    <g
       aria-label="C"
       id="text145589"
       style="font-weight:bold;font-size:20px;font-family:FreeSans;-inkscape-font-specification:'FreeSans Bold';letter-spacing:0px">
      <path
         d="m 119.34768,15.634929 q 0,-1 0.16,-1.98 0.18,-0.98 0.66,-2.04 0.48,-1.06 1.18,-1.8400004 0.72,-0.8 1.92,-1.32 1.22,-0.52 2.74,-0.52 4.76,0 5.62,4.7600004 h -1.9 q -0.32,-1.56 -1.26,-2.34 -0.94,-0.7800004 -2.68,-0.7800004 -2.12,0 -3.36,1.6200004 -1.22,1.62 -1.22,4.42 0,2.74 1.28,4.36 1.28,1.6 3.46,1.6 1.8,0 2.76,-1 0.96,-1.02 1.3,-3.14 h 1.92 q -0.66,5.78 -6,5.78 -1.5,0 -2.7,-0.5 -1.18,-0.52 -1.9,-1.3 -0.7,-0.78 -1.18,-1.82 -0.46,-1.06 -0.64,-2.02 -0.16,-0.96 -0.16,-1.94 z"
         style="-inkscape-font-specification:FreeSans"
         id="path166675" />
    </g>
    <g
       aria-label="E"
       id="text149127"
       style="font-weight:bold;font-size:20px;font-family:FreeSans;-inkscape-font-specification:'FreeSans Bold';letter-spacing:0px"
       transform="translate(3.0659893,0.58763853)">
      <path
         d="m 120.175,121.10529 v 5 h 8.6 v 1.64 h -10.46 v -14.58 h 10.1 v 1.64 h -8.24 v 4.66 h 7.94 v 1.64 z"
         style="-inkscape-font-specification:FreeSans"
         id="path166670" />
    </g>
    <g
       id="path165408"
       style="fill-opacity:1;fill:#000000;stroke:#000000;stroke-opacity:1">
      <g
         id="g165450"
         style="fill-opacity:1;fill:#000000;stroke:#000000;stroke-opacity:1">
        <g
           id="path165452"
           style="fill-opacity:1;fill:#000000;stroke:#000000;stroke-opacity:1">
          <path
             style="color:#000000;fill:#000000;fill-rule:evenodd;stroke-width:1.125;stroke-linejoin:round;-inkscape-stroke:none;stroke:#000000;stroke-opacity:1;fill-opacity:1"
             d="m 93.540533,110.55449 8.792647,19.0201 -19.020097,-8.79265 c 5.240798,-0.79748 9.358705,-4.94099 10.22745,-10.22745 z"
             id="path165456" />
          <path
             style="color:#000000;fill:#000000;fill-opacity:1;fill-rule:evenodd;stroke:#000000;stroke-linejoin:round;stroke-opacity:1;-inkscape-stroke:none"
             d="m 93.464844,109.99805 c -0.244083,0.0334 -0.438004,0.22183 -0.478516,0.46484 -0.830248,5.0522 -4.760173,9.00319 -9.757812,9.76367 -0.550983,0.0838 -0.657833,0.83172 -0.152344,1.06641 l 19.021488,8.79297 c 0.47574,0.21997 0.96731,-0.27289 0.74609,-0.74805 l -8.792969,-19.01953 c -0.103968,-0.22368 -0.341524,-0.35354 -0.585937,-0.32031 z"
             id="path165458"
             sodipodi:nodetypes="cccccccc" />
        </g>
      </g>
    </g>
  </g>
</svg>
