<?xml version="1.0" standalone="no"?>
<!DOCTYPE svg PUBLIC "-//W3C//DTD SVG 20010904//EN"
 "http://www.w3.org/TR/2001/REC-SVG-20010904/DTD/svg10.dtd">
<svg version="1.0" xmlns="http://www.w3.org/2000/svg"
 width="1575.000000pt" height="788.000000pt" viewBox="0 0 1575.000000 788.000000"
 preserveAspectRatio="xMidYMid meet">

<g transform="translate(0.000000,788.000000) scale(0.100000,-0.100000)"
fill="#000000" stroke="none">
<path d="M13152 7760 c-1 -29 1 -40 7 -31 7 11 11 10 20 -5 6 -11 11 -14 11
-8 0 5 -5 15 -12 22 -8 8 -8 15 3 29 13 16 12 17 -3 5 -14 -11 -17 -10 -21 10
-2 13 -5 3 -5 -22z"/>
<path d="M13830 7785 c0 -9 -9 -15 -25 -15 -14 0 -25 -4 -25 -9 0 -4 11 -6 24
-4 21 4 25 1 29 -23 3 -19 5 -13 6 19 0 26 -1 47 -4 47 -3 0 -5 -7 -5 -15z"/>
<path d="M13861 7795 c0 -5 4 -27 10 -47 10 -38 29 -52 29 -23 0 8 -4 15 -9
15 -4 0 -13 15 -19 33 -5 17 -10 28 -11 22z"/>
<path d="M14961 7784 c0 -11 3 -14 6 -6 3 7 2 16 -1 19 -3 4 -6 -2 -5 -13z"/>
<path d="M14280 7766 c0 -31 10 -56 21 -56 5 0 4 9 -3 19 -9 15 -9 23 0 34 10
12 9 16 -3 21 -11 4 -15 -1 -15 -18z"/>
<path d="M12376 7771 c-4 -5 3 -7 14 -4 23 6 26 13 6 13 -8 0 -17 -4 -20 -9z"/>
<path d="M12438 7773 c6 -2 18 -2 25 0 6 3 1 5 -13 5 -14 0 -19 -2 -12 -5z"/>
<path d="M12520 7770 c19 -13 30 -13 30 0 0 6 -10 10 -22 10 -19 0 -20 -2 -8
-10z"/>
<path d="M12588 7773 c6 -2 18 -2 25 0 6 3 1 5 -13 5 -14 0 -19 -2 -12 -5z"/>
<path d="M12731 7748 c2 -30 2 -31 6 -5 6 38 31 34 36 -5 l5 -33 -2 35 c-1 28
-5 36 -23 38 -20 3 -23 -1 -22 -30z"/>
<path d="M12798 7768 c9 -9 15 -9 24 0 9 9 7 12 -12 12 -19 0 -21 -3 -12 -12z"/>
<path d="M12854 7766 c-11 -28 0 -51 26 -53 22 -1 22 -1 3 4 -29 6 -30 33 -2
33 12 0 19 5 17 13 -7 18 -37 21 -44 3z m33 -2 c-3 -3 -12 -4 -19 -1 -8 3 -5
6 6 6 11 1 17 -2 13 -5z"/>
<path d="M12925 7770 c-3 -5 -2 -10 4 -10 5 0 13 5 16 10 3 6 2 10 -4 10 -5 0
-13 -4 -16 -10z"/>
<path d="M13016 7763 c-6 -14 -5 -16 5 -5 21 20 39 14 39 -13 0 -27 -18 -33
-39 -12 -10 10 -11 8 -5 -6 4 -11 15 -17 28 -15 16 2 21 10 21 33 0 23 -5 31
-21 33 -13 2 -24 -4 -28 -15z"/>
<path d="M13095 7769 c-4 -6 -4 -13 -1 -16 3 -4 6 -1 6 5 0 6 8 13 18 15 15 4
15 5 0 6 -9 0 -20 -4 -23 -10z"/>
<path d="M14028 7773 c6 -2 18 -2 25 0 6 3 1 5 -13 5 -14 0 -19 -2 -12 -5z"/>
<path d="M14085 7770 c-4 -6 -4 -22 -1 -36 5 -19 12 -24 28 -22 12 2 24 10 26
18 5 13 3 13 -11 2 -18 -15 -37 -8 -37 14 0 20 30 30 42 13 8 -12 9 -11 5 1
-4 18 -42 25 -52 10z"/>
<path d="M14218 7773 c6 -2 18 -2 25 0 6 3 1 5 -13 5 -14 0 -19 -2 -12 -5z"/>
<path d="M14377 7773 c-4 -3 -7 -17 -7 -30 0 -26 25 -42 42 -25 7 7 4 10 -8 9
-13 -1 -20 6 -22 21 -4 24 16 30 37 10 10 -11 11 -10 6 5 -7 17 -35 23 -48 10z"/>
<path d="M14451 7748 c1 -29 2 -30 8 -9 10 37 29 37 34 -1 l5 -33 -2 35 c-1
28 -5 36 -23 38 -20 3 -23 -1 -22 -30z"/>
<path d="M14615 7769 c-11 -17 -2 -18 19 -3 17 12 17 14 4 14 -9 0 -20 -5 -23
-11z"/>
<path d="M14721 7766 c-19 -22 -4 -58 22 -54 11 2 23 10 25 18 5 13 3 13 -11
2 -18 -15 -37 -8 -37 14 0 20 30 30 42 13 8 -12 9 -11 5 1 -5 21 -31 24 -46 6z"/>
<path d="M14808 7773 c7 -3 16 -2 19 1 4 3 -2 6 -13 5 -11 0 -14 -3 -6 -6z"/>
<path d="M14864 7766 c-11 -28 1 -51 26 -53 23 -1 23 -1 2 4 -29 6 -24 25 9
34 23 7 22 7 -6 9 -30 2 -30 2 -5 10 24 8 24 8 2 9 -12 1 -25 -5 -28 -13z"/>
<path d="M12437 7753 c-4 -3 -7 -15 -7 -25 0 -29 44 -20 48 10 3 16 -2 22 -16
22 -10 0 -22 -3 -25 -7z m24 -26 c-13 -13 -26 -3 -16 12 3 6 11 8 17 5 6 -4 6
-10 -1 -17z"/>
<path d="M12572 7738 c2 -16 10 -23 26 -24 20 -2 20 -1 2 3 -27 6 -21 25 11
34 21 6 20 7 -9 8 -29 1 -33 -2 -30 -21z"/>
<path d="M14211 7746 c-9 -11 -6 -12 14 -8 31 5 33 -5 3 -18 -23 -10 -23 -10
2 -7 32 3 43 47 12 47 -11 0 -25 -6 -31 -14z"/>
<path d="M12500 7740 c0 -5 6 -10 14 -10 8 0 18 5 21 10 3 6 -3 10 -14 10 -12
0 -21 -4 -21 -10z"/>
<path d="M13093 7730 c2 -8 12 -16 23 -17 13 -2 15 -1 4 4 -8 3 -19 11 -23 17
-6 7 -7 6 -4 -4z"/>
<path d="M14050 7731 c0 -5 -8 -12 -17 -14 -14 -4 -12 -5 5 -6 13 -1 22 5 22
14 0 8 -2 15 -5 15 -3 0 -5 -4 -5 -9z"/>
<path d="M14610 7730 c0 -6 7 -13 15 -17 24 -9 27 1 5 15 -13 8 -20 8 -20 2z"/>
<path d="M12375 7720 c3 -5 14 -10 23 -10 15 0 15 2 2 10 -20 13 -33 13 -25 0z"/>
<path d="M12810 7720 c0 -5 5 -10 11 -10 5 0 7 5 4 10 -3 6 -8 10 -11 10 -2 0
-4 -4 -4 -10z"/>
<path d="M12520 7711 c23 -7 23 -8 5 -13 -18 -5 -18 -5 -1 -4 11 1 21 7 24 14
2 8 -6 12 -25 11 l-28 -1 25 -7z"/>
<path d="M14798 7713 c6 -2 18 -2 25 0 6 3 1 5 -13 5 -14 0 -19 -2 -12 -5z"/>
<path d="M12840 7667 c0 -3 18 -20 40 -37 22 -17 40 -29 40 -27 0 3 -18 20
-40 37 -22 17 -40 29 -40 27z"/>
<path d="M14250 7625 c-30 -19 -52 -35 -48 -35 9 0 108 60 108 66 0 6 -2 5
-60 -31z"/>
<path d="M12976 7545 c21 -19 43 -34 47 -35 5 0 -10 16 -33 35 -54 45 -65 46
-14 0z"/>
<path d="M14118 7542 c-37 -20 -65 -38 -63 -40 4 -4 114 55 130 69 16 15 2 9
-67 -29z"/>
<path d="M13085 7455 c28 -25 73 -65 100 -87 67 -53 2 7 -86 80 -57 48 -59 49
-14 7z"/>
<path d="M14030 7480 c-9 -6 -10 -10 -3 -10 6 0 15 5 18 10 8 12 4 12 -15 0z"/>
<path d="M13965 7444 c-22 -14 -35 -23 -30 -21 47 18 75 33 75 39 0 11 0 11
-45 -18z"/>
<path d="M13850 7370 c-25 -16 -49 -32 -55 -34 -5 -2 -8 -5 -5 -8 3 -3 32 12
64 33 33 22 55 39 50 39 -5 0 -29 -14 -54 -30z"/>
<path d="M13270 7291 c19 -17 44 -36 55 -42 11 -6 4 3 -15 20 -19 17 -44 36
-55 42 -11 6 -4 -3 15 -20z"/>
<path d="M13720 7285 c-30 -19 -52 -35 -48 -35 9 0 108 60 108 66 0 6 -2 5
-60 -31z"/>
<path d="M13609 7212 c-25 -16 -51 -32 -59 -35 -10 -4 -8 -6 6 -6 12 -1 32 9
46 22 14 12 34 27 44 34 11 6 17 12 13 12 -3 1 -25 -12 -50 -27z"/>
<path d="M13373 7203 c14 -16 15 -22 5 -26 -9 -4 -7 -6 4 -6 28 -2 28 13 -1
33 l-26 20 18 -21z"/>
<path d="M13425 7197 c3 -15 2 -26 -2 -25 -5 1 -18 -4 -30 -12 -22 -14 -23
-22 -23 -127 l0 -112 53 -3 52 -3 0 -203 c0 -111 3 -202 7 -202 4 0 15 15 23
33 14 28 14 30 0 13 -14 -18 -15 -3 -15 172 l0 192 55 0 55 0 0 115 c0 114 0
115 -24 115 -28 0 -46 19 -42 46 1 10 -2 4 -8 -14 -9 -30 -13 -33 -45 -30 -29
3 -36 8 -48 38 -10 27 -12 29 -8 7z m165 -162 l0 -105 -105 0 -105 0 0 105 0
105 105 0 105 0 0 -105z"/>
<path d="M13465 7081 c-3 -6 1 -11 9 -11 9 0 16 -4 16 -10 0 -5 -6 -10 -14
-10 -16 0 -29 -27 -20 -41 3 -5 18 -8 33 -7 19 1 27 8 29 22 1 17 -1 18 -8 6
-10 -16 -12 -11 -14 29 -1 26 -20 39 -31 22z m30 -61 c3 -5 -3 -10 -14 -10
-12 0 -21 5 -21 10 0 6 6 10 14 10 8 0 18 -4 21 -10z"/>
<path d="M9641 7148 c-15 -41 -14 -48 4 -42 8 4 22 0 31 -7 14 -12 16 -11 12
6 -2 14 -10 19 -25 17 -17 -2 -20 1 -16 18 4 17 8 18 14 8 7 -10 9 -9 9 4 0
31 -18 29 -29 -4z"/>
<path d="M10010 7160 c-9 -16 -8 -20 5 -20 8 0 15 9 15 20 0 11 -2 20 -5 20
-2 0 -9 -9 -15 -20z"/>
<path d="M9763 7135 c0 -22 2 -30 4 -17 2 12 2 30 0 40 -3 9 -5 -1 -4 -23z"/>
<path d="M9800 7143 c0 -5 11 -8 25 -8 14 0 25 3 25 8 0 4 -11 7 -25 7 -14 0
-25 -3 -25 -7z"/>
<path d="M9871 7134 c0 -11 3 -14 6 -6 3 7 2 16 -1 19 -3 4 -6 -2 -5 -13z"/>
<path d="M9900 7140 c0 -5 5 -10 10 -10 6 0 10 5 10 10 0 6 -4 10 -10 10 -5 0
-10 -4 -10 -10z"/>
<path d="M10097 7143 c-4 -3 -6 -18 -6 -32 1 -21 2 -22 6 -6 3 11 10 26 15 33
11 12 -3 18 -15 5z"/>
<path d="M10144 7136 c-10 -25 3 -46 28 -45 l23 2 -22 4 c-31 6 -29 23 3 23
16 0 24 5 22 13 -7 18 -47 21 -54 3z m33 -2 c-3 -3 -12 -4 -19 -1 -8 3 -5 6 6
6 11 1 17 -2 13 -5z"/>
<path d="M10310 7143 c0 -5 11 -8 24 -8 13 0 22 3 19 8 -2 4 -13 7 -24 7 -10
0 -19 -3 -19 -7z"/>
<path d="M10381 7118 c1 -30 2 -31 8 -8 10 35 38 38 44 5 4 -24 4 -24 3 2 -1
23 -6 29 -28 31 -26 3 -28 1 -27 -30z"/>
<path d="M9920 7105 c0 -8 5 -15 10 -15 6 0 10 7 10 15 0 8 -4 15 -10 15 -5 0
-10 -7 -10 -15z"/>
<path d="M9800 7098 c0 -5 9 -8 19 -8 11 0 22 3 24 8 3 4 -6 7 -19 7 -13 0
-24 -3 -24 -7z"/>
<path d="M9880 7100 c0 -5 5 -10 10 -10 6 0 10 5 10 10 0 6 -4 10 -10 10 -5 0
-10 -4 -10 -10z"/>
<path d="M10310 7098 c0 -5 9 -8 19 -8 11 0 22 3 24 8 3 4 -6 7 -19 7 -13 0
-24 -3 -24 -7z"/>
<path d="M10032 6811 c-2 -230 -3 -243 -19 -230 -16 12 -17 12 -6 -2 7 -8 16
-26 21 -39 9 -23 9 -23 20 9 6 17 7 29 2 26 -6 -4 -11 88 -13 237 l-2 243 -3
-244z"/>
<path d="M13450 6540 c0 -5 5 -10 10 -10 6 0 10 5 10 10 0 6 -4 10 -10 10 -5
0 -10 -4 -10 -10z"/>
<path d="M9847 6467 c-3 -8 1 -14 9 -14 8 0 14 6 14 14 0 7 -4 13 -9 13 -5 0
-11 -6 -14 -13z"/>
<path d="M13152 6445 c0 -22 2 -32 5 -22 7 25 41 21 46 -5 2 -13 4 -3 4 22 1
25 -1 37 -4 28 -2 -10 -13 -18 -23 -18 -10 0 -21 8 -23 18 -3 9 -5 -1 -5 -23z"/>
<path d="M13231 6476 c-2 -20 24 -76 33 -73 13 4 37 77 25 77 -5 0 -9 -8 -9
-17 0 -10 -4 -24 -9 -32 -7 -11 -13 -7 -24 20 -9 19 -16 30 -16 25z"/>
<path d="M13648 6465 c-10 -10 4 -54 21 -67 13 -10 14 -10 4 2 -16 17 -17 50
-2 50 5 0 7 5 4 10 -7 11 -19 13 -27 5z"/>
<path d="M9996 6444 c-6 -17 9 -54 23 -54 5 0 14 6 20 13 8 11 6 13 -12 13
-13 -1 -22 5 -22 14 0 9 9 15 22 14 12 0 20 3 17 8 -9 14 -42 9 -48 -8z"/>
<path d="M10100 6444 c0 -8 5 -12 10 -9 6 3 10 10 10 16 0 5 -4 9 -10 9 -5 0
-10 -7 -10 -16z"/>
<path d="M13390 6446 c0 -8 7 -16 15 -20 20 -7 19 -24 -2 -29 -17 -4 -17 -5 0
-6 26 -2 34 29 11 42 -17 10 -17 11 1 18 19 7 18 8 -2 8 -13 1 -23 -5 -23 -13z"/>
<path d="M13457 6453 c-4 -3 -7 -11 -7 -17 0 -6 5 -5 12 2 19 19 38 14 38 -9
0 -17 -5 -20 -25 -17 -20 4 -23 3 -14 -8 6 -8 18 -14 25 -14 15 0 29 43 19 59
-7 12 -38 15 -48 4z"/>
<path d="M13600 6451 c25 -7 25 -7 3 -13 -23 -6 -31 -32 -14 -42 20 -13 42 7
39 33 -2 20 -9 26 -28 28 l-25 2 25 -8z m18 -33 c-6 -18 -28 -21 -28 -4 0 9 7
16 16 16 9 0 14 -5 12 -12z"/>
<path d="M13747 6453 c-4 -3 -7 -17 -7 -30 0 -27 26 -41 43 -24 8 8 5 11 -11
11 -16 0 -22 6 -22 21 0 17 5 20 25 17 13 -3 22 -1 19 3 -6 11 -38 12 -47 2z"/>
<path d="M13821 6428 c2 -31 2 -31 6 -5 2 15 10 27 18 27 8 0 16 -12 18 -27 4
-26 4 -26 6 5 1 28 -2 32 -24 32 -22 0 -25 -4 -24 -32z"/>
<path d="M9853 6432 c-13 -2 -23 -7 -23 -12 0 -5 7 -7 15 -4 8 4 22 1 30 -6 8
-7 15 -9 15 -4 0 19 -16 29 -37 26z"/>
<path d="M12543 6390 c0 -30 2 -43 4 -27 2 15 2 39 0 55 -2 15 -4 2 -4 -28z"/>
<path d="M10120 6414 c0 -8 5 -12 10 -9 6 4 8 11 5 16 -9 14 -15 11 -15 -7z"/>
<path d="M12360 6415 c-7 -9 -10 -18 -6 -22 3 -3 6 -1 6 6 0 6 10 16 23 21 15
6 17 9 6 9 -9 1 -22 -6 -29 -14z"/>
<path d="M10080 6410 c0 -5 5 -10 10 -10 6 0 10 5 10 10 0 6 -4 10 -10 10 -5
0 -10 -4 -10 -10z"/>
<path d="M12426 6391 c-3 -4 8 -8 24 -7 17 1 30 4 30 9 0 10 -48 9 -54 -2z"/>
<path d="M12500 6369 c0 -17 4 -28 10 -24 6 3 10 17 10 31 0 13 -4 24 -10 24
-5 0 -10 -14 -10 -31z"/>
<path d="M12353 6360 c2 -8 14 -16 28 -17 19 -1 20 -1 4 4 -11 3 -24 10 -28
17 -6 7 -7 6 -4 -4z"/>
<path d="M12430 6348 c0 -5 9 -8 19 -8 11 0 22 3 24 8 3 4 -6 7 -19 7 -13 0
-24 -3 -24 -7z"/>
<path d="M9725 6320 c-3 -5 3 -10 14 -10 12 0 21 5 21 10 0 6 -6 10 -14 10 -8
0 -18 -4 -21 -10z"/>
<path d="M9995 6320 c-3 -5 3 -10 14 -10 12 0 21 -5 21 -12 0 -6 3 -8 6 -5 8
7 -14 37 -27 37 -4 0 -11 -4 -14 -10z"/>
<path d="M13297 6324 c-4 -4 -6 -26 -6 -48 1 -23 3 -33 6 -23 6 21 19 22 31 1
6 -11 9 -3 8 27 -1 31 -6 45 -16 47 -9 1 -19 0 -23 -4z m33 -29 c0 -8 -7 -15
-15 -15 -8 0 -15 7 -15 15 0 8 7 15 15 15 8 0 15 -7 15 -15z"/>
<path d="M9720 6285 c0 -8 8 -11 20 -8 11 3 20 7 20 8 0 1 -9 5 -20 8 -12 3
-20 0 -20 -8z"/>
<path d="M9831 6273 c1 -22 2 -23 6 -8 3 11 10 23 17 27 7 5 5 8 -6 8 -13 0
-18 -7 -17 -27z"/>
<path d="M9873 6284 c-3 -9 -2 -24 4 -33 12 -19 43 -27 43 -12 0 6 -9 11 -21
11 -11 0 -17 5 -14 10 3 6 15 10 26 10 27 0 19 24 -9 28 -14 2 -25 -3 -29 -14z
m44 0 c-3 -3 -12 -4 -19 -1 -8 3 -5 6 6 6 11 1 17 -2 13 -5z"/>
<path d="M10063 6284 c-3 -9 -2 -24 4 -33 12 -19 43 -27 43 -12 0 6 -9 11 -20
11 -11 0 -20 5 -20 10 0 6 12 10 26 10 31 0 28 23 -4 28 -14 2 -25 -3 -29 -14z
m40 -1 c-7 -2 -19 -2 -25 0 -7 3 -2 5 12 5 14 0 19 -2 13 -5z"/>
<path d="M10210 6291 c23 -8 24 -9 3 -10 -12 -1 -25 -6 -28 -11 -10 -17 14
-38 36 -33 31 9 22 57 -11 60 l-25 2 25 -8z m10 -31 c0 -5 -7 -10 -16 -10 -8
0 -12 5 -9 10 3 6 10 10 16 10 5 0 9 -4 9 -10z"/>
<path d="M13374 6286 c-10 -26 1 -51 24 -54 12 -2 22 1 22 7 0 6 -9 11 -20 11
-11 0 -20 5 -20 10 0 6 9 10 20 10 11 0 20 7 20 15 0 19 -39 20 -46 1z m33 -2
c-3 -3 -12 -4 -19 -1 -8 3 -5 6 6 6 11 1 17 -2 13 -5z"/>
<path d="M13510 6291 c25 -7 25 -7 3 -13 -23 -6 -31 -32 -14 -42 20 -13 42 7
39 33 -2 20 -9 26 -28 28 l-25 2 25 -8z m20 -31 c0 -5 -7 -10 -15 -10 -8 0
-15 5 -15 10 0 6 7 10 15 10 8 0 15 -4 15 -10z"/>
<path d="M9990 6277 c0 -7 9 -13 20 -13 11 0 20 1 20 3 0 1 -9 7 -20 13 -15 8
-20 8 -20 -3z"/>
<path d="M7893 6210 c0 -41 2 -65 4 -52 5 25 13 27 33 10 12 -11 12 -10 1 5
-12 15 -11 21 5 40 19 22 19 22 -2 5 -29 -25 -32 -23 -37 25 -2 23 -4 8 -4
-33z"/>
<path d="M5893 6205 c0 -38 2 -56 4 -38 3 23 10 33 26 36 l22 4 -22 2 c-17 1
-23 9 -26 34 -2 17 -4 1 -4 -38z"/>
<path d="M8671 6223 c2 -47 2 -47 9 -13 4 19 8 29 9 21 0 -8 3 -12 6 -10 7 8
-6 49 -16 49 -5 0 -8 -21 -8 -47z"/>
<path d="M8746 6228 c9 -59 14 -60 14 -5 0 26 -5 47 -10 47 -6 0 -8 -16 -4
-42z"/>
<path d="M8911 6225 c1 -37 3 -43 8 -25 10 37 41 39 42 3 2 -24 2 -25 6 -5 5
24 -14 55 -28 47 -4 -3 -12 3 -18 12 -8 14 -10 7 -10 -32z"/>
<path d="M10278 6264 c-5 -4 -8 -16 -8 -28 0 -14 3 -17 11 -9 6 6 9 19 7 28
-1 9 -6 13 -10 9z"/>
<path d="M13587 6263 c-4 -3 -7 -16 -6 -27 0 -19 1 -19 10 3 10 24 8 36 -4 24z"/>
<path d="M7210 6241 c-14 -28 -12 -64 5 -87 13 -17 13 -16 3 14 -9 24 -10 39
-1 62 13 34 9 40 -7 11z"/>
<path d="M7573 6200 c0 -36 2 -50 4 -32 4 29 8 33 31 30 18 -2 28 -11 33 -28
l7 -25 1 28 c1 15 -4 27 -10 27 -5 0 -8 4 -5 8 3 5 -8 6 -24 4 -25 -4 -29 -1
-33 24 -2 16 -4 0 -4 -36z"/>
<path d="M13666 6253 c-11 -11 -6 -23 9 -23 8 0 15 4 15 9 0 13 -16 22 -24 14z"/>
<path d="M6511 6239 c0 -9 13 -28 29 -43 17 -15 28 -32 24 -38 -4 -7 -3 -8 4
-4 21 13 13 35 -17 51 -16 8 -32 23 -34 32 -4 14 -5 15 -6 2z"/>
<path d="M6609 6238 c-3 -7 -2 -31 1 -53 l6 -40 5 43 c5 42 -4 77 -12 50z"/>
<path d="M8790 6235 c-17 -20 -8 -50 15 -51 15 -1 16 0 3 3 -27 7 -21 23 7 23
27 0 32 9 13 28 -16 16 -23 15 -38 -3z m27 -11 c-3 -3 -12 -4 -19 -1 -8 3 -5
6 6 6 11 1 17 -2 13 -5z"/>
<path d="M8867 6243 c-12 -12 -7 -22 8 -17 8 4 15 10 15 15 0 11 -14 12 -23 2z"/>
<path d="M8995 6241 c-3 -7 3 -11 17 -12 l23 0 -23 -10 c-28 -11 -24 -33 7
-37 20 -3 22 0 19 30 -3 33 -29 51 -43 29z m35 -41 c0 -5 -7 -10 -15 -10 -8 0
-15 5 -15 10 0 6 7 10 15 10 8 0 15 -4 15 -10z"/>
<path d="M9083 6243 c-7 -2 -12 -19 -12 -36 2 -31 2 -31 6 -4 2 15 10 27 18
27 8 0 16 -12 18 -27 4 -22 4 -20 3 6 -1 35 -10 44 -33 34z"/>
<path d="M9197 6243 c-12 -12 -7 -22 8 -17 8 4 15 10 15 15 0 11 -14 12 -23 2z"/>
<path d="M9250 6240 c0 -5 8 -10 18 -11 12 0 11 -3 -6 -10 -30 -12 -23 -33 11
-37 23 -3 27 1 27 20 0 13 -5 29 -12 36 -15 15 -38 16 -38 2z m35 -40 c-3 -5
-13 -10 -21 -10 -8 0 -14 5 -14 10 0 6 9 10 21 10 11 0 17 -4 14 -10z"/>
<path d="M12237 6229 c-8 -11 -12 -29 -10 -40 7 -24 39 -44 48 -29 3 5 -3 10
-14 10 -17 0 -21 6 -21 30 0 23 4 30 20 30 11 0 20 5 20 10 0 18 -28 11 -43
-11z"/>
<path d="M5990 6185 c0 -27 2 -46 4 -44 8 8 10 78 3 85 -4 4 -7 -14 -7 -41z"/>
<path d="M6050 6187 c4 -41 5 -41 8 -8 2 18 0 37 -5 42 -5 5 -6 -11 -3 -34z"/>
<path d="M6105 6219 c-4 -6 -5 -12 -2 -15 2 -3 7 2 10 11 7 17 1 20 -8 4z"/>
<path d="M6200 6183 c0 -25 2 -44 4 -42 8 10 13 89 5 89 -5 0 -9 -21 -9 -47z"/>
<path d="M6315 6220 c4 -6 11 -8 16 -5 14 9 11 15 -7 15 -8 0 -12 -5 -9 -10z"/>
<path d="M6360 6225 c0 -5 5 -17 10 -25 5 -8 10 -10 10 -5 0 6 -5 17 -10 25
-5 8 -10 11 -10 5z"/>
<path d="M6423 6215 c-3 -9 -3 -18 -1 -21 3 -3 8 4 11 16 6 23 -1 27 -10 5z"/>
<path d="M6682 6218 c-14 -14 -15 -47 -2 -68 7 -11 8 -6 4 17 -4 20 -2 39 6
48 15 18 9 20 -8 3z"/>
<path d="M6780 6191 c0 -22 5 -43 10 -46 6 -4 10 8 10 29 0 20 0 39 1 43 0 4
-4 9 -10 11 -7 2 -11 -12 -11 -37z"/>
<path d="M6907 6188 c4 -55 13 -62 13 -10 0 22 -4 43 -8 46 -5 3 -7 -14 -5
-36z"/>
<path d="M7004 6206 c0 -13 4 -22 9 -19 10 6 9 43 -2 43 -5 0 -8 -11 -7 -24z"/>
<path d="M7062 6218 c-7 -7 -12 -23 -12 -37 0 -20 3 -23 9 -11 6 8 7 18 4 22
-2 5 1 15 7 23 15 18 9 20 -8 3z"/>
<path d="M7109 6218 c7 -9 9 -23 5 -30 -6 -10 -4 -11 7 0 11 10 10 15 -6 30
-17 15 -18 15 -6 0z"/>
<path d="M7358 6217 c6 -6 9 -27 8 -45 -1 -17 1 -32 6 -32 9 0 11 51 2 74 -3
9 -11 16 -16 16 -7 0 -7 -4 0 -13z"/>
<path d="M7415 6219 c-10 -15 3 -25 16 -12 7 7 7 13 1 17 -6 3 -14 1 -17 -5z"/>
<path d="M7780 6185 c0 -27 2 -46 4 -44 8 8 10 78 3 85 -4 4 -7 -14 -7 -41z"/>
<path d="M12635 6220 c-3 -5 3 -10 15 -10 12 0 18 5 15 10 -3 6 -10 10 -15 10
-5 0 -12 -4 -15 -10z"/>
<path d="M6154 6199 c0 -10 4 -19 8 -19 4 0 8 6 8 14 0 8 -4 17 -8 20 -4 2 -8
-4 -8 -15z"/>
<path d="M6270 6189 c0 -16 4 -28 9 -25 8 5 3 56 -5 56 -2 0 -4 -14 -4 -31z"/>
<path d="M6741 6204 c0 -11 3 -14 6 -6 3 7 2 16 -1 19 -3 4 -6 -2 -5 -13z"/>
<path d="M12300 6211 c0 -5 4 -21 9 -35 8 -18 15 -23 30 -19 16 4 21 13 20 37
-2 30 -2 30 -6 4 -5 -35 -33 -37 -33 -3 0 14 -4 25 -10 25 -5 0 -10 -4 -10 -9z"/>
<path d="M12390 6210 c0 -5 7 -7 15 -4 8 4 15 8 15 10 0 2 -7 4 -15 4 -8 0
-15 -4 -15 -10z"/>
<path d="M12441 6188 c2 -28 2 -29 6 -8 3 14 10 28 17 32 7 5 5 8 -6 8 -14 0
-18 -8 -17 -32z"/>
<path d="M12492 6207 c-9 -10 -8 -19 4 -35 16 -23 34 -29 34 -12 0 6 -7 10
-15 10 -8 0 -15 5 -15 10 0 6 9 10 21 10 12 0 19 5 17 13 -6 17 -33 20 -46 4z
m35 -3 c-3 -3 -12 -4 -19 -1 -8 3 -5 6 6 6 11 1 17 -2 13 -5z"/>
<path d="M12560 6212 c0 -5 13 -9 30 -9 16 0 27 4 24 9 -3 4 -16 8 -30 8 -13
0 -24 -4 -24 -8z"/>
<path d="M7482 6185 c0 -16 2 -22 5 -12 2 9 2 23 0 30 -3 6 -5 -1 -5 -18z"/>
<path d="M8700 6201 c0 -6 5 -13 10 -16 6 -3 10 1 10 9 0 9 -4 16 -10 16 -5 0
-10 -4 -10 -9z"/>
<path d="M8860 6189 c0 -5 9 -9 20 -9 11 0 20 2 20 4 0 2 -9 6 -20 9 -11 3
-20 1 -20 -4z"/>
<path d="M9190 6189 c0 -5 9 -9 20 -9 11 0 20 2 20 4 0 2 -9 6 -20 9 -11 3
-20 1 -20 -4z"/>
<path d="M6090 6180 c0 -5 5 -10 10 -10 6 0 10 5 10 10 0 6 -4 10 -10 10 -5 0
-10 -4 -10 -10z"/>
<path d="M6383 6167 c4 -10 7 -28 8 -40 0 -22 0 -22 10 1 7 18 5 28 -8 40 -16
16 -16 16 -10 -1z"/>
<path d="M7681 6164 c0 -11 3 -14 6 -6 3 7 2 16 -1 19 -3 4 -6 -2 -5 -13z"/>
<path d="M12650 6170 c0 -5 5 -10 11 -10 5 0 7 5 4 10 -3 6 -8 10 -11 10 -2 0
-4 -4 -4 -10z"/>
<path d="M6850 6161 c0 -6 4 -13 10 -16 6 -3 7 1 4 9 -7 18 -14 21 -14 7z"/>
<path d="M7420 6155 c0 -8 4 -15 10 -15 5 0 7 7 4 15 -4 8 -8 15 -10 15 -2 0
-4 -7 -4 -15z"/>
<path d="M7008 6125 c-5 -25 -4 -25 10 -11 12 11 13 19 5 27 -7 7 -12 3 -15
-16z"/>
<path d="M10010 6001 l0 -150 -45 -3 c-25 -2 -45 -7 -45 -13 0 -6 46 -11 111
-13 87 -2 110 0 107 10 -3 8 -24 14 -51 16 l-46 3 -3 146 c-2 106 -6 147 -15
151 -10 3 -13 -31 -13 -147z"/>
<path d="M13470 6001 l0 -150 -45 -3 c-25 -2 -45 -7 -45 -13 0 -6 46 -11 111
-13 87 -2 110 0 107 10 -3 8 -24 14 -51 16 l-46 3 -3 146 c-2 106 -6 147 -15
151 -10 3 -13 -31 -13 -147z"/>
<path d="M6331 6124 c0 -11 3 -14 6 -6 3 7 2 16 -1 19 -3 4 -6 -2 -5 -13z"/>
<path d="M6260 6126 c0 -2 8 -10 18 -17 15 -13 16 -12 3 4 -13 16 -21 21 -21
13z"/>
<path d="M6950 6121 c0 -6 4 -13 10 -16 6 -3 7 1 4 9 -7 18 -14 21 -14 7z"/>
<path d="M8670 6065 c0 -41 2 -45 24 -45 24 0 54 25 43 37 -4 3 -9 -2 -13 -11
-3 -9 -15 -16 -25 -16 -15 0 -19 7 -19 35 0 28 4 35 19 35 10 0 22 -7 25 -16
4 -9 9 -14 13 -11 11 12 -19 37 -43 37 -22 0 -24 -4 -24 -45z"/>
<path d="M8804 6078 c-4 -6 1 -17 11 -25 26 -18 44 -17 19 2 -16 13 -17 16 -4
25 13 8 13 10 -2 10 -9 0 -20 -5 -24 -12z"/>
<path d="M8875 6079 c-11 -16 -1 -19 13 -3 7 8 8 14 3 14 -5 0 -13 -5 -16 -11z"/>
<path d="M8931 6076 c-20 -24 -9 -51 19 -51 21 0 25 5 25 30 0 34 -24 45 -44
21z m39 -27 c0 -23 -28 -26 -37 -3 -6 16 15 37 29 28 4 -3 8 -14 8 -25z"/>
<path d="M9013 6083 c-7 -2 -12 -19 -12 -36 l1 -32 7 30 c5 22 12 29 25 27 11
-2 15 1 11 7 -7 12 -13 12 -32 4z"/>
<path d="M9093 6083 c-7 -2 -12 -19 -12 -36 l1 -32 7 29 c3 17 11 30 16 30 6
0 13 -13 17 -30 6 -28 6 -28 5 5 -2 35 -11 44 -34 34z"/>
<path d="M9162 6078 c-20 -20 -14 -28 19 -28 24 0 30 4 27 17 -4 22 -29 28
-46 11z m35 -14 c-3 -3 -12 -4 -19 -1 -8 3 -5 6 6 6 11 1 17 -2 13 -5z"/>
<path d="M9235 6079 c-11 -17 -2 -18 19 -3 17 12 17 14 4 14 -9 0 -20 -5 -23
-11z"/>
<path d="M9289 6058 c4 -17 13 -33 21 -36 13 -3 13 -2 1 6 -9 7 -11 19 -7 36
5 19 2 26 -8 26 -10 0 -12 -8 -7 -32z"/>
<path d="M5887 6053 c-11 -10 -8 -143 3 -143 6 0 10 32 10 75 0 75 -1 81 -13
68z"/>
<path d="M6010 6050 c0 -6 33 -10 80 -10 47 0 80 4 80 10 0 6 -33 10 -80 10
-47 0 -80 -4 -80 -10z"/>
<path d="M6280 6050 c0 -6 32 -10 75 -10 43 0 75 4 75 10 0 6 -32 10 -75 10
-43 0 -75 -4 -75 -10z"/>
<path d="M6540 6050 c0 -6 33 -10 80 -10 47 0 80 4 80 10 0 6 -33 10 -80 10
-47 0 -80 -4 -80 -10z"/>
<path d="M6810 6050 c0 -6 33 -10 80 -10 47 0 80 4 80 10 0 6 -33 10 -80 10
-47 0 -80 -4 -80 -10z"/>
<path d="M7080 6050 c0 -6 33 -10 80 -10 47 0 80 4 80 10 0 6 -33 10 -80 10
-47 0 -80 -4 -80 -10z"/>
<path d="M7350 6050 c0 -6 32 -10 75 -10 43 0 75 4 75 10 0 6 -32 10 -75 10
-43 0 -75 -4 -75 -10z"/>
<path d="M7610 6050 c0 -6 33 -10 80 -10 47 0 80 4 80 10 0 6 -33 10 -80 10
-47 0 -80 -4 -80 -10z"/>
<path d="M7880 6050 c0 -6 32 -10 75 -10 43 0 75 4 75 10 0 6 -32 10 -75 10
-43 0 -75 -4 -75 -10z"/>
<path d="M8150 6051 c0 -5 32 -11 70 -13 44 -2 69 1 67 7 -5 13 -137 19 -137
6z"/>
<path d="M9046 6045 c-3 -8 -1 -15 4 -15 6 0 10 7 10 15 0 8 -2 15 -4 15 -2 0
-6 -7 -10 -15z"/>
<path d="M10791 6018 c1 -24 4 -33 6 -21 2 12 12 24 21 26 15 4 15 5 0 6 -10
0 -18 5 -18 10 0 5 8 12 18 14 13 4 11 5 -5 6 -21 1 -23 -3 -22 -41z"/>
<path d="M12268 6053 c7 -3 16 -2 19 1 4 3 -2 6 -13 5 -11 0 -14 -3 -6 -6z"/>
<path d="M8870 6038 c0 -12 7 -18 23 -17 15 0 17 2 7 6 -8 3 -18 11 -22 17 -5
7 -8 4 -8 -6z"/>
<path d="M9233 6040 c2 -8 12 -16 23 -17 13 -2 15 -1 4 4 -8 3 -19 11 -23 17
-6 7 -7 6 -4 -4z"/>
<path d="M9168 6028 c6 -6 18 -8 28 -6 14 3 12 5 -9 10 -19 3 -25 2 -19 -4z"/>
<path d="M10861 6013 c-1 -35 9 -46 33 -37 10 4 16 17 15 38 l-1 31 -7 -30
c-3 -16 -11 -30 -16 -30 -5 0 -13 14 -16 30 l-7 30 -1 -32z"/>
<path d="M10940 6026 c0 -8 7 -16 15 -20 20 -7 19 -24 -2 -29 -17 -4 -17 -5 0
-6 26 -2 34 29 11 42 -17 10 -17 11 1 18 19 7 18 8 -2 8 -13 1 -23 -5 -23 -13z"/>
<path d="M11003 6024 c-8 -22 9 -48 33 -51 16 -2 15 -1 -3 9 -31 15 -29 28 3
28 31 0 28 23 -4 28 -14 2 -25 -3 -29 -14z m40 -1 c-7 -2 -19 -2 -25 0 -7 3
-2 5 12 5 14 0 19 -2 13 -5z"/>
<path d="M12269 6021 c22 -17 22 -49 0 -36 -5 4 -9 1 -9 -5 0 -19 34 -6 38 13
4 18 -23 46 -43 46 -5 1 1 -8 14 -18z"/>
<path d="M12338 6033 c6 -2 18 -2 25 0 6 3 1 5 -13 5 -14 0 -19 -2 -12 -5z"/>
<path d="M12401 6023 c0 -10 3 -13 6 -5 8 21 31 13 36 -13 4 -23 4 -23 3 2 -1
21 -7 29 -23 31 -17 3 -23 -1 -22 -15z"/>
<path d="M12475 6031 c-3 -5 0 -13 6 -17 7 -4 9 -3 5 4 -3 6 2 13 11 15 16 4
16 5 1 6 -9 0 -19 -3 -23 -8z"/>
<path d="M12537 6034 c-12 -12 -8 -41 8 -54 20 -17 47 5 43 34 -3 21 -37 34
-51 20z m43 -23 c0 -19 -23 -35 -34 -24 -14 15 -5 43 14 43 13 0 20 -7 20 -19z"/>
<path d="M12610 6024 c0 -14 3 -15 18 -3 9 7 19 15 21 16 2 2 -5 3 -17 3 -14
0 -22 -6 -22 -16z"/>
<path d="M8808 6023 c6 -2 18 -2 25 0 6 3 1 5 -13 5 -14 0 -19 -2 -12 -5z"/>
<path d="M12320 6007 c0 -18 21 -37 40 -37 9 1 6 6 -10 15 -19 10 -21 15 -10
18 8 3 22 8 30 10 8 3 0 6 -17 6 -21 1 -33 -4 -33 -12z"/>
<path d="M12500 5998 c0 -9 -6 -19 -12 -21 -10 -4 -10 -6 0 -6 14 -1 28 26 18
36 -3 4 -6 -1 -6 -9z"/>
<path d="M8282 5838 l-2 -88 -765 0 -765 0 0 -340 0 -340 -1716 2 -1717 3 -13
45 c-24 81 -90 142 -174 161 -103 23 -226 -63 -250 -176 -4 -21 -12 -31 -28
-33 -28 -4 -28 -20 0 -24 17 -2 24 -13 30 -43 24 -116 142 -189 262 -163 68
14 131 74 156 148 l19 55 501 3 501 2 -3 -697 -3 -698 -27 -27 c-32 -31 -34
-45 -12 -76 10 -14 25 -22 45 -22 24 0 29 -4 29 -25 l0 -25 -210 0 c-133 0
-210 -4 -210 -10 0 -6 77 -10 210 -10 l210 0 0 -30 c0 -27 -3 -30 -30 -30 -58
0 -75 -79 -23 -108 16 -10 18 -30 21 -197 l4 -186 39 -16 c26 -10 38 -20 35
-29 -6 -16 3 -18 24 -4 13 9 13 11 0 20 -8 6 -32 15 -52 22 l-38 11 0 183 c0
182 0 183 25 208 24 24 25 29 25 161 0 132 -1 137 -25 161 l-25 25 0 699 0
700 505 0 505 0 0 -700 0 -699 -25 -25 c-14 -14 -25 -34 -25 -44 0 -26 31 -52
63 -52 22 0 27 -5 27 -25 l0 -25 -216 0 c-141 0 -213 -3 -209 -10 4 -6 87 -10
216 -10 l209 0 0 -30 c0 -26 -4 -30 -28 -30 -32 0 -62 -27 -62 -54 0 -9 11
-28 25 -42 25 -25 25 -26 25 -208 l0 -183 45 -17 c25 -10 45 -21 45 -26 0 -5
-43 -25 -95 -45 -52 -21 -95 -41 -95 -45 0 -4 43 -25 95 -46 52 -22 94 -43 92
-47 -1 -4 -47 -29 -101 -55 l-98 -47 97 -40 c53 -22 97 -44 97 -49 -1 -5 -44
-27 -98 -50 l-97 -41 57 -24 56 -24 0 -594 0 -593 -505 0 -505 0 0 596 0 595
-51 21 c-50 21 -50 22 -27 35 l23 14 -25 -7 c-43 -11 -44 -22 -4 -38 22 -9 46
-20 54 -24 13 -8 15 -85 15 -598 l0 -589 -775 -5 c-506 -3 -85 -6 1218 -8
l1992 -2 0 -165 0 -165 -29 0 c-17 0 -33 -4 -36 -10 -4 -6 8 -10 29 -10 l36 0
0 -140 0 -140 930 -2 c512 -1 949 -2 972 -3 l42 0 14 50 c8 28 16 52 18 54 1
2 18 -7 36 -20 28 -20 45 -24 108 -24 62 0 80 4 108 23 35 26 33 27 51 -43
l10 -40 463 3 c255 1 479 4 498 6 19 1 -184 3 -452 4 l-487 2 -16 53 c-15 53
-15 55 10 108 63 136 4 286 -131 332 -38 14 -39 15 -42 67 -2 39 1 57 15 73
16 20 16 20 1 8 -17 -13 -18 -3 -18 178 l0 191 335 0 335 0 0 -49 0 -50 115
-3 115 -3 0 39 c0 35 2 37 17 25 15 -12 16 -12 10 3 -7 20 15 15 52 -14 13
-10 29 -18 35 -18 6 0 28 -11 49 -25 20 -14 37 -22 37 -17 0 5 -26 22 -57 37
-76 37 -96 54 -83 70 8 9 6 14 -5 19 -8 3 -15 15 -15 27 0 21 0 21 -20 -2
l-19 -24 -1 58 0 57 -115 0 -115 0 0 -60 0 -60 -340 0 -340 0 0 -186 0 -185
-22 6 -23 6 23 -17 c23 -17 27 -40 16 -105 -5 -32 -10 -37 -49 -47 -55 -14
-112 -64 -136 -117 -27 -59 -25 -159 4 -217 20 -40 22 -50 11 -90 -6 -25 -14
-51 -18 -57 -5 -8 -266 -11 -962 -11 l-954 0 0 135 0 135 46 0 c27 0 43 4 39
10 -3 5 -24 10 -46 10 l-39 0 0 315 0 314 93 3 c84 3 92 5 92 23 0 19 -7 20
-190 20 -183 0 -190 -1 -190 -20 0 -18 8 -20 86 -23 l86 -3 6 -137 c3 -75 2
-140 -2 -145 -4 -4 -317 -6 -697 -5 l-689 3 -3 596 -2 596 -46 18 c-25 9 -43
19 -40 22 2 3 44 21 93 41 49 20 90 41 92 46 1 5 -28 22 -66 38 -37 16 -81 35
-98 42 l-30 14 103 47 c56 27 102 51 102 54 0 4 -41 23 -92 43 -51 19 -94 40
-96 46 -1 5 40 27 93 48 52 20 95 41 95 45 0 4 -23 15 -50 25 -36 13 -52 25
-56 40 -3 13 -4 95 -2 184 3 158 3 161 28 180 25 19 25 21 25 165 0 144 0 147
-25 167 l-25 20 -3 699 -3 699 701 0 700 0 0 -294 0 -294 32 -11 c41 -14 48
-7 8 9 l-30 12 0 629 0 629 980 0 c967 0 980 0 1000 -20 11 -11 26 -20 34 -20
24 0 46 29 46 60 0 24 6 30 36 40 46 16 78 2 132 -54 56 -59 92 -73 146 -57
22 7 56 13 75 14 18 2 39 10 46 20 11 15 40 17 303 17 l291 0 26 -26 c40 -40
96 -14 89 43 -6 54 -60 69 -96 28 l-22 -25 -290 0 c-280 0 -292 1 -304 20 -23
37 -75 22 -84 -25 -4 -26 -45 -45 -82 -38 -16 3 -47 24 -69 47 -78 81 -128 95
-200 56 -20 -11 -44 -20 -52 -20 -8 0 -20 -9 -27 -20 -12 -19 -24 -20 -230
-20 l-217 0 -4 88 -3 87 -2 -87z m1656 -96 c4 -28 -24 -41 -44 -20 -20 20 -7
50 20 46 13 -2 22 -12 24 -26z m-1156 -14 c-9 -9 -12 -7 -12 12 0 19 3 21 12
12 9 -9 9 -15 0 -24z m438 10 c0 -16 -3 -19 -11 -11 -6 6 -8 16 -5 22 11 17
16 13 16 -11z m-6029 -507 c50 -31 85 -80 95 -130 l7 -32 -49 3 c-47 3 -49 4
-52 36 -5 49 -32 42 -32 -8 l0 -40 -70 35 c-38 19 -72 35 -74 35 -3 0 -6 -12
-8 -27 -3 -26 -7 -28 -55 -31 -48 -3 -53 -1 -53 18 0 28 33 90 62 117 66 62
155 71 229 24z m-183 -213 c2 -16 5 -28 8 -28 2 0 31 14 64 30 33 17 64 30 70
30 5 0 10 -16 10 -35 0 -46 27 -49 32 -2 3 31 5 32 51 35 40 3 47 0 47 -15 -1
-34 -37 -98 -73 -130 -106 -93 -291 -27 -314 111 l-6 37 54 -3 c51 -3 54 -5
57 -30z m2370 -1436 c-4 -22 -46 -28 -54 -8 -4 9 -1 23 6 31 16 19 53 1 48
-23z m-1033 3 c0 -22 -31 -33 -47 -17 -17 17 -1 44 24 40 15 -2 23 -10 23 -23z
m-5 -220 c17 -20 5 -45 -20 -45 -11 0 -23 7 -26 15 -6 15 11 45 26 45 4 0 13
-7 20 -15z m1030 0 c17 -20 5 -45 -20 -45 -11 0 -23 7 -26 15 -6 15 11 45 26
45 4 0 13 -7 20 -15z m4400 -1800 l0 -105 -105 0 -105 0 0 105 0 105 105 0
105 0 0 -105z m-910 -636 l0 -79 -75 0 c-43 0 -75 -4 -75 -10 0 -6 60 -10 161
-10 104 0 158 3 154 10 -3 6 -38 10 -76 10 l-70 0 3 83 c3 81 3 82 28 79 110
-15 184 -177 132 -287 l-20 -40 -16 37 c-20 46 -20 58 -2 58 8 0 18 5 21 10 4
7 -50 10 -154 10 -101 0 -161 -4 -161 -10 0 -5 9 -10 20 -10 24 0 25 -8 6 -35
-7 -11 -16 -29 -18 -40 -9 -35 -39 52 -39 110 0 59 24 116 64 153 26 25 96 54
109 45 5 -2 8 -40 8 -84z m117 -186 c28 -68 23 -94 -22 -120 -62 -36 -153 -25
-207 24 -18 16 -17 17 3 39 12 12 18 27 15 33 -4 5 -4 22 0 36 6 25 8 25 101
25 l94 0 16 -37z"/>
<path d="M9657 1613 c-3 -5 -8 -24 -12 -44 -5 -27 -3 -38 8 -42 25 -9 56 3 50
20 -4 10 -9 11 -16 4 -14 -14 -37 -14 -37 0 0 6 7 9 15 5 9 -3 15 0 15 9 0 8
-4 15 -10 15 -5 0 -10 5 -10 11 0 6 7 8 16 5 10 -4 14 -1 12 6 -5 15 -25 22
-31 11z"/>
<path d="M12386 5871 c-125 -82 -57 -273 93 -258 52 6 89 31 116 80 l20 37
347 0 347 0 25 -25 c30 -30 36 -31 68 -6 48 38 11 112 -48 97 -13 -4 -28 -15
-34 -26 -10 -19 -22 -20 -356 -20 -320 0 -345 1 -350 18 -13 44 -44 87 -75
104 -44 24 -116 23 -153 -1z m181 -34 c27 -30 33 -45 33 -79 0 -104 -97 -165
-195 -124 -74 31 -99 136 -48 196 35 42 57 50 122 46 48 -3 58 -7 88 -39z
m831 -95 c4 -28 -24 -40 -45 -19 -21 21 -9 49 19 45 15 -2 24 -11 26 -26z"/>
<path d="M12450 5800 c0 -5 5 -10 10 -10 6 0 10 5 10 10 0 6 -4 10 -10 10 -5
0 -10 -4 -10 -10z"/>
<path d="M12436 5765 c-9 -25 -7 -42 4 -25 8 13 13 13 31 2 18 -12 20 -11 17
5 -2 10 -10 17 -18 15 -7 -2 -16 2 -20 8 -5 8 -9 6 -14 -5z"/>
<path d="M10742 5810 c-18 -11 -41 -20 -52 -20 -11 0 -25 -9 -32 -20 -12 -19
-24 -20 -230 -20 l-217 0 -25 25 c-30 30 -57 32 -79 7 -25 -28 -21 -69 8 -88
28 -18 60 -11 75 17 10 18 24 19 233 19 210 0 224 -1 240 -20 9 -11 23 -20 30
-20 26 0 51 28 52 56 0 21 7 32 28 42 41 20 70 8 137 -53 68 -62 113 -77 164
-52 18 8 43 13 57 10 16 -3 31 2 43 16 18 20 30 21 193 21 l173 0 -2 -697 -3
-697 -34 -9 c-57 -14 -115 -61 -145 -117 -55 -101 -22 -223 79 -291 49 -33 95
-45 95 -25 0 8 -14 16 -33 20 -72 13 -147 110 -147 189 0 76 49 150 123 189
53 27 67 19 67 -37 0 -45 0 -45 -35 -45 -24 0 -35 -5 -35 -15 0 -16 43 -31 59
-20 18 11 12 -13 -19 -75 -16 -33 -30 -64 -30 -69 0 -5 12 -11 28 -13 l27 -3
0 -229 0 -229 -41 -14 c-55 -18 -122 -78 -145 -127 -24 -52 -24 -130 0 -181
30 -68 84 -111 174 -139 16 -5 17 -75 17 -1281 l0 -1275 -237 -3 c-131 -1 23
-2 342 -2 319 0 428 1 243 2 l-338 3 0 1249 c0 687 3 1263 6 1280 5 22 12 31
26 31 32 0 92 36 130 78 106 117 45 325 -106 363 -40 10 -44 14 -50 47 -8 48
-6 313 2 377 6 45 10 50 35 53 15 2 27 5 27 8 0 2 -16 36 -35 74 l-35 70 29 0
c29 0 57 21 44 33 -3 4 -19 7 -35 7 -27 0 -28 2 -28 50 0 57 9 61 68 31 78
-40 112 -97 112 -187 0 -93 -59 -174 -139 -190 -33 -7 -47 -19 -33 -28 15 -9
80 16 117 47 87 71 106 210 43 302 -28 41 -91 85 -132 92 -30 5 -34 10 -40 42
-3 20 -6 334 -6 699 l0 662 375 0 c243 0 375 4 375 10 0 7 -191 10 -553 10
-540 0 -553 0 -570 20 -9 11 -26 20 -36 20 -25 0 -51 -26 -51 -50 0 -22 -48
-41 -82 -33 -13 3 -45 27 -73 53 -27 26 -60 53 -72 59 -33 17 -84 13 -121 -9z
m-577 -70 c0 -29 -32 -41 -41 -16 -9 24 4 48 23 44 12 -2 18 -12 18 -28z m972
-2 c-3 -8 -6 -5 -6 6 -1 11 2 17 5 13 3 -3 4 -12 1 -19z m-427 2 c0 -5 -4 -10
-10 -10 -5 0 -10 5 -10 10 0 6 5 10 10 10 6 0 10 -4 10 -10z m830 -2264 c0
-43 -1 -45 -32 -48 -21 -2 -33 -8 -33 -18 0 -10 12 -16 33 -18 17 -2 32 -5 32
-8 0 -2 -13 -34 -30 -71 -16 -36 -30 -70 -30 -74 0 -5 14 -9 30 -9 29 0 30 -1
30 -49 0 -28 -4 -52 -10 -56 -5 -3 -26 1 -47 10 -113 47 -164 174 -110 276 29
54 98 109 138 109 28 0 29 -2 29 -44z m87 33 c67 -25 113 -99 113 -183 0 -92
-36 -150 -115 -187 -61 -28 -65 -26 -65 36 0 54 0 55 30 55 17 0 30 2 30 5 0
3 -16 37 -35 75 -19 38 -35 72 -35 75 0 3 16 5 36 5 28 0 35 3 32 18 -2 10
-14 18 -31 20 -25 3 -27 7 -27 48 0 49 11 54 67 33z"/>
<path d="M13567 5782 c-41 -45 0 -114 55 -93 14 5 28 17 31 25 6 14 46 16 347
16 l340 0 0 -350 0 -350 158 0 c183 0 229 -9 238 -47 8 -30 -8 -60 -28 -54
-124 38 -172 34 -184 -15 -15 -57 69 -82 157 -48 47 20 59 11 59 -42 0 -49
-19 -58 -71 -34 -24 11 -59 20 -76 20 -35 0 -73 -29 -73 -55 0 -8 9 -24 20
-35 24 -24 76 -26 135 -5 48 17 65 7 65 -41 0 -44 -12 -49 -65 -28 -97 37
-198 -24 -135 -81 16 -14 31 -17 80 -12 34 3 67 11 75 17 21 18 45 5 45 -24 0
-44 -28 -51 -245 -56 l-200 -5 -3 -161 -2 -162 45 -18 c27 -12 43 -24 40 -31
-5 -15 4 -16 25 -3 18 11 16 12 -40 34 -25 10 -48 23 -52 29 -10 16 -10 297 0
297 4 0 98 1 208 3 185 2 204 4 224 22 17 16 20 27 16 55 -8 43 -8 54 0 109 4
27 2 52 -6 66 -11 20 -10 30 5 60 16 35 16 40 0 82 -13 33 -14 48 -6 56 14 14
14 62 1 87 -17 31 -67 40 -236 40 l-164 0 0 170 0 170 75 0 c96 0 98 18 3 22
l-73 3 -5 165 -5 165 -341 3 -342 2 -16 25 c-20 30 -56 33 -79 7z m61 -40 c4
-28 -24 -40 -45 -19 -14 13 -14 19 -3 32 18 22 44 15 48 -13z m1055 -831 c15
-15 -3 -28 -50 -37 -52 -10 -83 2 -83 32 0 26 1 26 60 22 33 -2 66 -10 73 -17z
m-13 -146 l25 -14 -39 -16 c-54 -23 -106 -13 -106 20 0 13 6 26 13 29 17 7 77
-3 107 -19z m-2 -141 c34 -14 36 -16 19 -29 -24 -17 -90 -29 -117 -20 -27 9
-26 43 3 55 33 13 53 12 95 -6z"/>
<path d="M5880 5709 c0 -51 4 -78 10 -74 6 3 10 40 10 81 0 43 -4 74 -10 74
-6 0 -10 -34 -10 -81z"/>
<path d="M8283 5560 c0 -47 2 -66 4 -42 2 23 2 61 0 85 -2 23 -4 4 -4 -43z"/>
<path d="M15223 5550 c0 -41 2 -58 4 -37 2 20 2 54 0 75 -2 20 -4 3 -4 -38z"/>
<path d="M2908 5603 c7 -3 16 -2 19 1 4 3 -2 6 -13 5 -11 0 -14 -3 -6 -6z"/>
<path d="M14966 5594 c-20 -19 -21 -88 -2 -104 13 -10 13 -7 3 19 -15 40 0 83
33 92 23 6 23 7 3 8 -12 1 -29 -6 -37 -15z"/>
<path d="M2957 5580 c4 -16 8 -18 19 -9 14 12 17 9 28 -36 2 -11 4 -4 3 15 -2
27 -6 35 -19 34 -10 -1 -18 2 -18 7 0 5 -4 9 -9 9 -5 0 -7 -9 -4 -20z"/>
<path d="M3053 5576 c16 -13 16 -14 -4 -19 -12 -3 -19 -12 -17 -19 6 -18 37
-23 52 -8 8 9 4 10 -16 5 -18 -5 -28 -3 -28 4 0 6 11 11 25 11 14 0 25 4 25 8
0 13 -23 32 -39 32 -13 -1 -13 -3 2 -14z"/>
<path d="M3156 5574 c-10 -26 -7 -34 14 -34 11 0 20 5 20 11 0 5 -4 8 -9 4 -5
-3 -12 -1 -16 5 -3 5 3 10 14 10 12 0 21 5 21 10 0 16 -37 11 -44 -6z"/>
<path d="M3230 5575 c-18 -22 -8 -50 20 -52 l25 -3 -25 11 c-18 8 -21 13 -10
16 44 13 43 13 30 28 -16 19 -24 19 -40 0z m30 -5 c0 -5 -5 -10 -11 -10 -5 0
-7 5 -4 10 3 6 8 10 11 10 2 0 4 -4 4 -10z"/>
<path d="M3110 5555 c0 -14 2 -25 4 -25 2 0 6 11 8 25 3 14 1 25 -3 25 -5 0
-9 -11 -9 -25z"/>
<path d="M15060 5551 c-13 -26 -13 -34 5 -57 14 -18 14 -17 9 13 -4 20 -2 39
6 48 8 10 9 15 2 15 -6 0 -16 -9 -22 -19z"/>
<path d="M15118 5559 c6 -7 12 -22 12 -34 0 -12 -6 -27 -12 -35 -11 -12 -10
-12 5 0 22 16 20 71 -3 78 -12 4 -13 2 -2 -9z"/>
<path d="M15173 5525 c0 -27 2 -38 4 -22 2 15 2 37 0 50 -2 12 -4 0 -4 -28z"/>
<path d="M2890 5540 c0 -6 7 -13 15 -17 24 -9 27 1 5 15 -13 8 -20 8 -20 2z"/>
<path d="M3153 5518 c2 -7 12 -13 22 -13 10 0 20 6 23 13 2 7 -6 12 -23 12
-17 0 -25 -5 -22 -12z m34 -4 c-3 -3 -12 -4 -19 -1 -8 3 -5 6 6 6 11 1 17 -2
13 -5z"/>
<path d="M5880 5435 c0 -43 4 -75 10 -75 6 0 10 32 10 75 0 43 -4 75 -10 75
-6 0 -10 -32 -10 -75z"/>
<path d="M2920 5410 c0 -28 5 -43 16 -47 19 -7 46 7 52 28 2 8 -2 5 -10 -5
-21 -27 -48 -14 -48 24 0 33 24 41 50 18 12 -11 12 -10 1 5 -7 9 -24 17 -37
17 -21 0 -24 -5 -24 -40z"/>
<path d="M3180 5440 c0 -5 -9 -10 -20 -10 -13 0 -22 -9 -26 -26 -8 -31 7 -48
35 -39 17 5 21 15 21 46 0 21 -2 39 -5 39 -3 0 -5 -4 -5 -10z m-7 -33 c3 -8 1
-20 -4 -28 -11 -19 -34 3 -26 25 8 20 23 21 30 3z"/>
<path d="M3060 5415 c-10 -12 -11 -21 -3 -33 13 -21 45 -22 50 -2 4 12 3 13
-5 1 -12 -17 -42 -7 -42 14 0 21 30 31 42 14 8 -12 9 -11 5 1 -5 21 -31 24
-47 5z"/>
<path d="M3214 5406 c-8 -32 2 -46 29 -45 21 0 21 1 -3 11 l-25 11 23 6 c13 3
23 9 23 14 -1 4 -1 12 -1 17 0 22 -40 9 -46 -14z m36 4 c0 -5 -4 -10 -10 -10
-5 0 -10 5 -10 10 0 6 5 10 10 10 6 0 10 -4 10 -10z"/>
<path d="M13951 5328 c1 -93 6 -87 11 15 2 37 0 67 -4 67 -4 0 -7 -37 -7 -82z"/>
<path d="M14075 5400 c3 -5 39 -10 80 -10 41 0 77 5 80 10 4 6 -25 10 -80 10
-55 0 -84 -4 -80 -10z"/>
<path d="M14610 5400 c0 -6 31 -10 74 -10 41 0 78 5 81 10 4 6 -23 10 -74 10
-47 0 -81 -4 -81 -10z"/>
<path d="M14875 5400 c3 -5 39 -10 80 -10 41 0 77 5 80 10 4 6 -25 10 -80 10
-55 0 -84 -4 -80 -10z"/>
<path d="M15140 5400 c0 -6 33 -10 79 -10 44 0 83 5 86 10 4 6 -25 10 -79 10
-51 0 -86 -4 -86 -10z"/>
<path d="M15410 5401 c0 -5 34 -11 75 -13 55 -2 75 0 75 10 0 8 -22 12 -75 12
-41 0 -75 -4 -75 -9z"/>
<path d="M8283 5290 c0 -47 2 -66 4 -42 2 23 2 61 0 85 -2 23 -4 4 -4 -43z"/>
<path d="M15540 5195 c0 -50 4 -85 10 -85 6 0 10 35 10 85 0 50 -4 85 -10 85
-6 0 -10 -35 -10 -85z"/>
<path d="M5880 5165 c0 -43 4 -75 10 -75 6 0 10 32 10 75 0 43 -4 75 -10 75
-6 0 -10 -32 -10 -75z"/>
<path d="M13954 5060 c0 -52 1 -74 3 -47 2 26 2 68 0 95 -2 26 -3 4 -3 -48z"/>
<path d="M8283 5020 c0 -47 2 -66 4 -42 2 23 2 61 0 85 -2 23 -4 4 -4 -43z"/>
<path d="M2637 5063 c-11 -11 -8 -253 3 -253 6 0 10 47 10 120 l0 120 85 0
c50 0 85 4 85 10 0 11 -172 14 -183 3z"/>
<path d="M2148 4984 c-13 -28 -2 -58 23 -60 8 -1 9 1 2 3 -19 7 -26 42 -12 59
7 8 18 13 26 10 8 -3 11 -1 8 4 -11 18 -35 10 -47 -16z"/>
<path d="M15540 4920 c0 -47 4 -80 10 -80 6 0 10 33 10 80 0 47 -4 80 -10 80
-6 0 -10 -33 -10 -80z"/>
<path d="M2226 4982 c-13 -12 -5 -20 19 -18 14 0 24 5 22 10 -4 11 -33 17 -41
8z"/>
<path d="M2310 4981 c0 -5 6 -12 13 -14 7 -3 5 -6 -5 -6 -11 -1 -18 -9 -18
-21 0 -15 7 -20 25 -20 19 0 25 5 25 23 0 23 -17 47 -32 47 -4 0 -8 -4 -8 -9z
m25 -41 c-3 -5 -10 -10 -16 -10 -5 0 -9 5 -9 10 0 6 7 10 16 10 8 0 12 -4 9
-10z"/>
<path d="M2431 4976 c-7 -8 -11 -30 -9 -48 2 -25 8 -33 23 -33 29 0 33 35 3
36 l-23 0 23 9 c12 6 22 18 22 30 0 23 -22 27 -39 6z m29 -10 c0 -11 -19 -15
-25 -6 -3 5 1 10 9 10 9 0 16 -2 16 -4z"/>
<path d="M2500 4975 c-17 -20 -8 -50 15 -51 15 -1 16 0 3 3 -24 6 -23 23 0 23
26 0 34 11 21 27 -15 17 -24 17 -39 -2z"/>
<path d="M2371 4948 c2 -28 2 -29 6 -8 3 14 10 28 17 32 7 5 5 8 -6 8 -14 0
-18 -8 -17 -32z"/>
<path d="M5880 4889 c0 -51 4 -78 10 -74 6 3 10 40 10 81 0 43 -4 74 -10 74
-6 0 -10 -34 -10 -81z"/>
<path d="M13954 4785 c0 -49 1 -71 3 -48 2 23 2 64 0 90 -2 26 -3 8 -3 -42z"/>
<path d="M15082 4828 c-25 -25 -10 -78 22 -77 21 0 21 0 -1 9 -34 14 -29 59 7
73 13 5 13 6 0 6 -9 1 -21 -4 -28 -11z"/>
<path d="M15273 4800 c0 -25 2 -35 4 -22 2 12 2 32 0 45 -2 12 -4 2 -4 -23z"/>
<path d="M2197 4823 c-4 -3 -7 -25 -7 -47 1 -38 2 -40 15 -22 15 19 15 19 28
1 13 -16 14 -15 13 16 -1 19 -5 40 -9 47 -9 13 -30 16 -40 5z m41 -25 c-6 -18
-28 -21 -28 -4 0 9 7 16 16 16 9 0 14 -5 12 -12z"/>
<path d="M2353 4785 c0 -27 2 -38 4 -22 2 15 2 37 0 50 -2 12 -4 0 -4 -28z"/>
<path d="M8283 4740 c0 -47 2 -66 4 -42 2 23 2 61 0 85 -2 23 -4 4 -4 -43z"/>
<path d="M15160 4805 c-17 -21 -8 -50 17 -53 26 -4 41 31 23 53 -16 19 -24 19
-40 0z m38 -22 c-2 -10 -10 -18 -18 -18 -8 0 -16 8 -18 18 -2 12 3 17 18 17
15 0 20 -5 18 -17z"/>
<path d="M2280 4795 c-17 -20 -8 -50 15 -51 15 -1 16 0 3 3 -24 6 -23 23 0 23
26 0 34 11 21 27 -15 17 -24 17 -39 -2z m27 -11 c-3 -3 -12 -4 -19 -1 -8 3 -5
6 6 6 11 1 17 -2 13 -5z"/>
<path d="M2386 4801 c-4 -5 2 -12 11 -14 17 -4 17 -5 1 -6 -11 -1 -18 -9 -18
-21 0 -25 38 -28 47 -4 11 28 -27 69 -41 45z m24 -41 c0 -5 -4 -10 -10 -10 -5
0 -10 5 -10 10 0 6 5 10 10 10 6 0 10 -4 10 -10z"/>
<path d="M2446 4788 c4 -7 11 -28 14 -48 l6 -35 16 48 c17 47 15 66 -2 25 l-9
-23 -7 23 c-3 12 -11 22 -16 22 -5 0 -6 -5 -2 -12z"/>
<path d="M2630 4775 c0 -8 -12 -26 -26 -40 -26 -26 -26 -52 -1 -83 18 -22 70
-10 86 20 15 25 14 29 -7 55 -13 15 -25 36 -29 46 -7 21 -23 23 -23 2z m30
-60 c17 -20 5 -45 -20 -45 -11 0 -23 7 -26 15 -6 15 11 45 26 45 4 0 13 -7 20
-15z"/>
<path d="M1046 4763 c-11 -11 -7 -20 9 -20 8 0 15 4 15 8 0 11 -16 20 -24 12z"/>
<path d="M1110 4755 c-7 -9 -10 -18 -6 -22 3 -3 6 -1 6 6 0 6 10 16 23 21 15
6 17 9 6 9 -9 1 -22 -6 -29 -14z"/>
<path d="M15540 4651 c0 -44 5 -83 10 -86 6 -4 10 25 10 79 0 51 -4 86 -10 86
-6 0 -10 -33 -10 -79z"/>
<path d="M1030 4710 c0 -5 11 -10 25 -10 14 0 25 5 25 10 0 6 -11 10 -25 10
-14 0 -25 -4 -25 -10z"/>
<path d="M1112 4694 c9 -9 21 -15 27 -13 6 2 -2 10 -17 17 -25 11 -25 11 -10
-4z"/>
<path d="M2547 4694 c-4 -4 -7 -29 -7 -56 l0 -48 -145 0 c-121 0 -145 -2 -145
-15 0 -12 25 -15 143 -17 l142 -3 3 -48 c2 -32 7 -47 15 -44 8 2 13 39 15 112
2 100 -4 136 -21 119z"/>
<path d="M5880 4615 c0 -43 4 -75 10 -75 6 0 10 32 10 75 0 43 -4 75 -10 75
-6 0 -10 -32 -10 -75z"/>
<path d="M14853 4600 c0 -25 2 -35 4 -22 2 12 2 32 0 45 -2 12 -4 2 -4 -23z"/>
<path d="M15187 4634 c-7 -8 2 -65 13 -77 4 -5 6 10 4 33 -3 44 -7 54 -17 44z"/>
<path d="M14890 4603 c0 -15 2 -15 9 -4 5 8 16 11 25 8 9 -4 16 -2 16 3 0 6
-11 10 -25 10 -17 0 -25 -5 -25 -17z"/>
<path d="M14965 4600 c-9 -27 10 -49 35 -43 27 7 25 20 -2 19 -14 -1 -23 5
-23 14 0 10 8 14 23 13 12 -2 22 2 22 7 0 20 -48 10 -55 -10z"/>
<path d="M15040 4604 c0 -30 19 -52 40 -47 15 4 20 13 19 37 -1 28 -2 29 -8 7
-9 -34 -31 -39 -31 -7 0 14 -4 26 -10 26 -5 0 -10 -7 -10 -16z"/>
<path d="M15126 4611 c-4 -5 3 -7 14 -4 23 6 26 13 6 13 -8 0 -17 -4 -20 -9z"/>
<path d="M15248 4611 c11 -7 11 -9 -2 -14 -17 -7 -22 -32 -7 -41 19 -12 41 7
41 35 0 23 -4 29 -22 29 -17 0 -19 -3 -10 -9z m22 -31 c0 -5 -7 -10 -16 -10
-8 0 -12 5 -9 10 3 6 10 10 16 10 5 0 9 -4 9 -10z"/>
<path d="M15310 4603 c0 -15 2 -15 9 -4 5 8 16 11 26 8 9 -4 14 -3 10 3 -11
17 -45 11 -45 -7z"/>
<path d="M15385 4609 c-11 -16 4 -59 20 -59 8 0 15 5 15 10 0 6 -7 10 -15 10
-21 0 -19 38 3 43 15 4 15 5 0 6 -9 0 -20 -4 -23 -10z"/>
<path d="M15443 4604 c-3 -9 -2 -24 4 -33 12 -19 43 -27 43 -12 0 6 -7 11 -15
11 -8 0 -15 5 -15 10 0 6 9 10 21 10 27 0 19 24 -9 28 -14 2 -25 -3 -29 -14z"/>
<path d="M958 4598 c-7 -23 6 -71 22 -76 13 -5 13 -3 1 11 -7 9 -11 25 -8 36
6 23 -8 50 -15 29z"/>
<path d="M13954 4515 c0 -49 1 -71 3 -48 2 23 2 64 0 90 -2 26 -3 8 -3 -42z"/>
<path d="M881 4558 c1 -31 2 -31 8 -8 4 15 14 24 24 24 9 -1 14 2 11 7 -3 5
-14 9 -25 9 -15 0 -19 -7 -18 -32z"/>
<path d="M1010 4575 c-17 -20 -3 -49 26 -53 18 -3 18 -2 2 8 -24 15 -23 30 3
30 12 0 19 5 17 13 -7 19 -33 20 -48 2z"/>
<path d="M1081 4558 c1 -22 3 -26 6 -13 3 11 10 26 15 33 8 9 6 12 -6 12 -12
0 -16 -9 -15 -32z"/>
<path d="M1176 4581 c-4 -5 3 -7 15 -4 17 5 20 2 17 -18 -2 -18 -8 -23 -23
-21 -16 3 -17 1 -8 -8 19 -21 45 -4 41 27 -3 28 -30 43 -42 24z"/>
<path d="M1245 4571 c-8 -25 4 -51 24 -51 14 1 14 2 -1 11 -10 5 -18 16 -18
24 0 8 8 19 18 24 15 9 16 10 0 11 -9 0 -19 -8 -23 -19z"/>
<path d="M1335 4580 c-4 -6 -11 -8 -16 -5 -5 4 -9 0 -9 -7 0 -7 9 -19 21 -26
18 -12 19 -11 10 6 -7 13 -7 22 1 30 7 7 9 12 6 12 -4 0 -10 -5 -13 -10z"/>
<path d="M15131 4564 c13 -16 29 -19 29 -5 0 5 -9 11 -21 14 -16 4 -18 3 -8
-9z"/>
<path d="M8283 4470 c0 -47 2 -66 4 -42 2 23 2 61 0 85 -2 23 -4 4 -4 -43z"/>
<path d="M2595 4486 c-18 -27 -8 -69 19 -79 14 -6 16 -35 16 -222 l0 -215
-160 0 c-103 0 -160 -4 -160 -10 0 -7 58 -10 168 -8 l167 3 3 219 c2 219 2
219 27 242 30 27 32 55 7 77 -27 25 -69 21 -87 -7z m63 -5 c21 -13 10 -46 -16
-49 -27 -4 -40 22 -22 43 14 17 20 18 38 6z"/>
<path d="M15547 4453 c-11 -11 -8 -163 3 -163 6 0 10 35 10 85 0 85 -1 91 -13
78z"/>
<path d="M6835 4431 c3 -6 -40 -31 -95 -57 -55 -26 -100 -50 -100 -53 0 -7
141 -63 147 -58 2 2 -24 15 -57 28 -33 13 -60 27 -60 31 0 4 43 28 96 53 55
25 93 49 89 55 -3 5 -11 10 -16 10 -6 0 -8 -4 -4 -9z"/>
<path d="M950 4388 c0 -32 3 -39 10 -28 9 13 12 13 24 -3 13 -17 14 -14 13 25
-2 36 -5 43 -24 46 -21 3 -23 -1 -23 -40z m40 17 c0 -8 -7 -15 -15 -15 -8 0
-15 7 -15 15 0 8 7 15 15 15 8 0 15 -7 15 -15z"/>
<path d="M1103 4390 c0 -25 2 -35 4 -22 2 12 2 32 0 45 -2 12 -4 2 -4 -23z"/>
<path d="M5880 4340 c0 -52 4 -79 10 -75 6 3 10 37 10 75 0 38 -4 72 -10 75
-6 4 -10 -23 -10 -75z"/>
<path d="M1029 4394 c-16 -19 -1 -48 27 -51 13 -2 11 1 -6 8 -18 8 -21 13 -10
16 44 13 43 13 30 28 -16 19 -24 19 -41 -1z"/>
<path d="M1148 4404 c10 -5 9 -9 -4 -19 -22 -16 -12 -45 16 -45 18 0 21 5 18
32 -2 24 -8 33 -23 35 -11 2 -14 0 -7 -3z m22 -38 c0 -11 -19 -15 -25 -6 -3 5
1 10 9 10 9 0 16 -2 16 -4z"/>
<path d="M7011 4363 c1 -26 3 -41 6 -32 2 10 13 19 24 22 29 8 22 51 -8 55
-21 3 -23 0 -22 -45z m31 5 c-15 -15 -26 -4 -18 18 5 13 9 15 18 6 9 -9 9 -15
0 -24z"/>
<path d="M7437 4403 c-13 -12 -7 -43 8 -43 21 0 19 -28 -2 -33 -14 -4 -13 -5
3 -6 30 -1 37 23 14 44 -20 18 -18 41 2 29 7 -4 8 -2 4 4 -8 13 -19 15 -29 5z"/>
<path d="M7733 4365 c0 -27 2 -38 4 -22 2 15 2 37 0 50 -2 12 -4 0 -4 -28z"/>
<path d="M1201 4395 c0 -5 6 -26 13 -45 11 -29 13 -31 18 -14 3 12 -2 31 -13
45 -10 13 -18 20 -18 14z"/>
<path d="M1241 4384 c0 -11 3 -14 6 -6 3 7 2 16 -1 19 -3 4 -6 -2 -5 -13z"/>
<path d="M7089 4368 c-9 -19 -9 -21 2 -10 20 19 39 14 39 -9 0 -16 -5 -20 -20
-16 -11 3 -20 1 -20 -4 0 -13 37 -11 45 2 11 16 -4 59 -20 59 -8 0 -20 -10
-26 -22z"/>
<path d="M7275 4370 c-15 -16 -15 -22 -5 -35 7 -8 22 -14 34 -14 20 2 20 2 -1
6 -28 5 -30 23 -3 23 11 0 20 6 20 14 0 23 -27 26 -45 6z m32 -6 c-3 -3 -12
-4 -19 -1 -8 3 -5 6 6 6 11 1 17 -2 13 -5z"/>
<path d="M7588 4382 c-14 -2 -18 -13 -18 -43 0 -21 5 -39 10 -39 6 0 10 4 10
9 0 5 9 11 20 14 13 3 20 14 20 30 0 26 -14 36 -42 29z m32 -32 c0 -11 -7 -20
-15 -20 -8 0 -15 9 -15 20 0 11 7 20 15 20 8 0 15 -9 15 -20z"/>
<path d="M7668 4382 c-13 -2 -18 -13 -18 -42 l0 -38 30 14 c45 23 35 77 -12
66z m28 -23 c10 -17 -13 -36 -27 -22 -12 12 -4 33 11 33 5 0 12 -5 16 -11z"/>
<path d="M7196 4363 c-6 -14 -5 -15 5 -6 7 7 10 15 7 18 -3 3 -9 -2 -12 -12z"/>
<path d="M7233 4360 c-3 -11 -9 -17 -14 -14 -5 3 -9 1 -9 -5 0 -24 19 -18 29
9 5 17 8 30 5 30 -3 0 -8 -9 -11 -20z"/>
<path d="M7341 4348 c1 -22 3 -26 6 -13 3 11 10 26 15 33 8 9 6 12 -6 12 -12
0 -16 -9 -15 -32z"/>
<path d="M7498 4350 c3 -24 9 -30 28 -30 21 0 24 5 23 33 -1 29 -2 29 -8 8 -9
-34 -31 -39 -31 -7 0 14 -4 26 -8 26 -5 0 -7 -13 -4 -30z"/>
<path d="M7766 4355 c3 -16 7 -36 7 -42 0 -7 3 -13 7 -13 8 0 33 70 27 77 -3
2 -8 -6 -12 -18 l-7 -22 -15 24 c-14 24 -14 24 -7 -6z"/>
<path d="M7167 4341 c3 -12 9 -21 14 -21 14 0 11 16 -5 29 -12 10 -13 8 -9 -8z"/>
<path d="M13954 4240 c0 -52 1 -74 3 -47 2 26 2 68 0 95 -2 26 -3 4 -3 -48z"/>
<path d="M1090 4136 l0 -145 -47 -3 c-27 -2 -48 -8 -51 -16 -3 -10 21 -12 112
-10 69 2 116 7 116 13 0 6 -22 11 -50 13 l-49 3 -3 141 c-2 102 -6 143 -15
146 -10 3 -13 -30 -13 -142z"/>
<path d="M8284 4195 c0 -49 1 -71 3 -48 2 23 2 64 0 90 -2 26 -3 8 -3 -42z"/>
<path d="M6813 4249 c26 -15 21 -22 -29 -43 -25 -10 -43 -20 -41 -22 6 -6 117
38 117 46 0 4 -11 12 -25 18 -32 15 -46 15 -22 1z"/>
<path d="M7107 4223 c-4 -3 -7 -23 -7 -44 0 -35 12 -49 41 -49 18 0 8 18 -13
24 -21 6 -21 8 -6 18 15 11 15 13 0 25 -15 11 -15 12 6 13 12 0 22 5 22 10 0
11 -33 14 -43 3z"/>
<path d="M7687 4204 c-11 -11 3 -24 18 -18 8 4 12 10 9 15 -6 11 -18 12 -27 3z"/>
<path d="M7175 4180 c-8 -24 12 -53 31 -46 7 3 15 0 18 -7 2 -7 5 7 5 31 1 38
-1 42 -23 42 -16 0 -27 -7 -31 -20z m43 -13 c2 -10 -3 -17 -12 -17 -18 0 -29
16 -21 31 9 14 29 6 33 -14z"/>
<path d="M7251 4180 c-1 -32 15 -49 40 -43 14 4 19 14 18 37 -1 29 -1 30 -8 6
-4 -14 -13 -25 -21 -25 -8 0 -17 11 -21 25 l-7 25 -1 -25z"/>
<path d="M7332 4170 c0 -19 2 -27 5 -17 2 9 2 25 0 35 -3 9 -5 1 -5 -18z"/>
<path d="M7360 4189 c0 -21 27 -56 36 -46 5 4 4 11 -2 15 -6 4 -16 16 -22 27
-9 15 -11 16 -12 4z"/>
<path d="M7444 4192 c18 -8 18 -9 3 -15 -18 -7 -23 -32 -8 -41 20 -13 42 7 39
33 -2 19 -9 27 -28 28 -21 2 -22 1 -6 -5z m16 -32 c0 -5 -4 -10 -10 -10 -5 0
-10 5 -10 10 0 6 5 10 10 10 6 0 10 -4 10 -10z"/>
<path d="M7541 4186 c-9 -11 -10 -20 -1 -35 11 -21 40 -29 40 -11 0 6 -7 10
-15 10 -8 0 -15 5 -15 10 0 6 9 10 21 10 12 0 19 5 17 13 -7 18 -33 20 -47 3z"/>
<path d="M7610 4183 c0 -13 3 -14 12 -5 18 18 26 15 31 -15 4 -26 4 -26 6 5 1
28 -2 32 -24 32 -17 0 -25 -6 -25 -17z"/>
<path d="M10761 4148 c0 -24 3 -36 6 -28 3 8 12 21 21 28 14 11 14 12 -1 12
-22 0 -22 17 1 23 13 4 11 5 -5 6 -21 1 -23 -4 -22 -41z"/>
<path d="M11131 4152 c-1 -45 10 -48 30 -10 8 15 8 19 0 14 -6 -4 -15 3 -20
16 -8 20 -10 17 -10 -20z"/>
<path d="M6678 4163 c-21 -9 -38 -19 -38 -23 0 -8 112 -51 118 -46 2 2 -17 12
-42 21 -25 10 -46 21 -46 25 0 3 15 14 33 23 41 20 24 20 -25 0z"/>
<path d="M10920 4146 c0 -26 5 -36 21 -41 12 -4 25 -3 31 3 13 13 6 55 -10 58
-7 1 -8 0 -2 -3 13 -6 13 -40 -1 -49 -16 -9 -27 13 -21 42 2 14 0 24 -7 24 -6
0 -11 -15 -11 -34z"/>
<path d="M15540 4101 c0 -44 5 -83 10 -86 6 -4 10 25 10 79 0 51 -4 86 -10 86
-6 0 -10 -33 -10 -79z"/>
<path d="M11025 4161 c19 -8 19 -8 -2 -15 -13 -4 -23 -14 -23 -22 0 -19 28
-30 42 -16 8 8 5 9 -11 5 -12 -3 -21 -1 -21 6 0 6 8 11 18 11 10 0 22 3 25 7
10 9 -13 33 -32 32 -12 0 -11 -2 4 -8z"/>
<path d="M11085 4159 c-11 -16 -1 -19 13 -3 7 8 8 14 3 14 -5 0 -13 -5 -16
-11z"/>
<path d="M7690 4150 c0 -6 7 -10 15 -10 8 0 15 2 15 4 0 2 -7 6 -15 10 -8 3
-15 1 -15 -4z"/>
<path d="M10876 4135 c2 -11 4 -29 5 -40 l0 -20 9 20 c12 27 12 47 1 40 -5 -3
-11 0 -14 7 -2 7 -3 4 -1 -7z"/>
<path d="M1683 4095 c0 -27 2 -38 4 -22 2 15 10 27 18 27 8 0 16 -12 18 -27
l4 -28 2 28 c1 21 -4 30 -18 34 -11 3 -22 12 -24 22 -3 9 -5 -6 -4 -34z"/>
<path d="M1953 4095 c0 -27 2 -38 4 -22 2 15 2 37 0 50 -2 12 -4 0 -4 -28z"/>
<path d="M5880 4065 c0 -43 4 -75 10 -75 6 0 10 32 10 75 0 43 -4 75 -10 75
-6 0 -10 -32 -10 -75z"/>
<path d="M1480 4090 c0 -22 5 -40 10 -40 6 0 10 9 10 21 0 18 4 20 25 15 22
-6 25 -3 25 21 -1 24 -2 25 -11 11 -12 -22 -39 -24 -39 -3 0 8 -4 15 -10 15
-5 0 -10 -18 -10 -40z"/>
<path d="M1798 4085 c11 -31 19 -42 27 -34 7 7 6 12 -2 17 -6 4 -15 20 -18 35
-4 15 -11 27 -16 27 -4 0 -1 -20 9 -45z"/>
<path d="M1836 4115 c-3 -9 -6 -22 -5 -28 0 -7 5 -1 10 12 5 13 8 26 5 28 -2
2 -6 -3 -10 -12z"/>
<path d="M11080 4121 c0 -10 19 -25 25 -20 1 2 -3 10 -11 17 -8 7 -14 8 -14 3z"/>
<path d="M1982 4111 c2 -7 7 -12 11 -12 12 1 9 15 -3 20 -7 2 -11 -2 -8 -8z"/>
<path d="M1582 4080 c0 -19 2 -27 5 -17 2 9 2 25 0 35 -3 9 -5 1 -5 -18z"/>
<path d="M1609 4080 c-1 -16 -2 -36 -3 -42 -2 -19 40 -22 48 -3 4 10 -2 19
-17 25 -12 5 -17 9 -10 9 7 1 17 10 23 21 9 18 8 20 -15 20 -21 0 -25 -5 -26
-30z m31 10 c0 -5 -4 -10 -10 -10 -5 0 -10 5 -10 10 0 6 5 10 10 10 6 0 10 -4
10 -10z"/>
<path d="M1877 4104 c-4 -4 -7 -12 -7 -18 0 -6 4 -5 9 3 11 18 41 7 41 -15 0
-12 -7 -15 -26 -11 -23 4 -24 3 -10 -11 12 -13 18 -13 31 -2 22 18 15 54 -10
58 -12 2 -24 0 -28 -4z"/>
<path d="M2048 4102 c11 -7 11 -10 -2 -15 -17 -7 -22 -32 -7 -41 5 -4 17 -3
26 0 23 9 16 58 -10 62 -15 2 -16 1 -7 -6z m22 -32 c0 -5 -7 -10 -16 -10 -8 0
-12 5 -9 10 3 6 10 10 16 10 5 0 9 -4 9 -10z"/>
<path d="M2109 4103 c-1 -5 -2 -24 -2 -43 -2 -31 1 -35 22 -35 32 0 39 23 9
34 -15 7 -17 10 -7 10 9 1 19 10 22 21 4 16 0 20 -19 20 -13 0 -24 -3 -25 -7z
m31 -13 c0 -5 -4 -10 -10 -10 -5 0 -10 5 -10 10 0 6 5 10 10 10 6 0 10 -4 10
-10z"/>
<path d="M2173 4094 c-3 -9 -2 -24 4 -33 12 -19 43 -27 43 -12 0 6 -9 11 -21
11 -11 0 -17 5 -14 10 3 6 15 10 26 10 27 0 19 24 -9 28 -14 2 -25 -3 -29 -14z"/>
<path d="M14268 4067 c-43 -18 -78 -35 -78 -38 0 -6 46 -29 58 -29 4 0 -1 5
-10 11 -21 12 -24 29 -5 30 15 1 136 58 122 57 -5 0 -45 -14 -87 -31z"/>
<path d="M6802 4072 c21 -9 38 -20 38 -23 0 -4 -14 -12 -30 -19 -17 -7 -29
-15 -27 -17 6 -6 77 29 77 38 0 7 -27 19 -75 33 -11 3 -3 -2 17 -12z"/>
<path d="M1990 4061 c0 -5 5 -13 10 -16 6 -3 10 -2 10 4 0 5 -4 13 -10 16 -5
3 -10 2 -10 -4z"/>
<path d="M13954 3965 c0 -49 1 -71 3 -48 2 23 2 64 0 90 -2 26 -3 8 -3 -42z"/>
<path d="M7100 3998 c0 -39 1 -40 14 -22 14 18 15 18 21 2 15 -38 23 -12 16
55 -1 4 -12 7 -26 7 -23 0 -25 -4 -25 -42z m40 16 c0 -17 -22 -14 -28 4 -2 7
3 12 12 12 9 0 16 -7 16 -16z"/>
<path d="M7407 4034 c-7 -8 2 -65 13 -77 4 -5 6 10 4 33 -3 44 -7 54 -17 44z"/>
<path d="M373 3980 c0 -30 2 -43 4 -27 2 15 2 39 0 55 -2 15 -4 2 -4 -28z"/>
<path d="M452 4019 c-1 -9 -14 -20 -28 -23 -20 -5 -25 -12 -22 -34 3 -28 23
-38 46 -23 9 5 12 23 9 52 -2 24 -4 37 -5 28z m-5 -45 c8 -21 -13 -42 -28 -27
-13 13 -5 43 11 43 6 0 13 -7 17 -16z"/>
<path d="M10760 3986 c0 -38 3 -46 19 -46 10 0 25 8 32 18 13 15 12 16 -3 4
-23 -18 -38 -7 -38 29 0 22 5 29 19 29 11 0 22 -5 24 -10 3 -6 4 -5 3 2 -1 7
-15 14 -29 16 -26 3 -27 1 -27 -42z"/>
<path d="M11010 4021 c0 -5 -9 -11 -21 -14 -16 -4 -20 -12 -17 -33 2 -15 9
-29 16 -30 7 -1 8 0 2 3 -5 2 -10 16 -10 29 0 34 28 31 33 -3 3 -20 4 -15 6
15 0 23 -1 42 -4 42 -3 0 -5 -4 -5 -9z"/>
<path d="M11178 4000 c2 -17 -1 -37 -8 -45 -10 -12 -9 -15 6 -15 16 0 19 6 16
45 -2 25 -7 45 -11 45 -4 0 -6 -14 -3 -30z"/>
<path d="M180 3975 c0 -41 2 -45 24 -45 32 0 37 9 29 53 -5 31 -10 37 -29 37
-22 0 -24 -4 -24 -45z m40 25 c0 -5 -7 -10 -15 -10 -8 0 -15 5 -15 10 0 6 7
10 15 10 8 0 15 -4 15 -10z m10 -40 c0 -5 -5 -12 -11 -16 -14 -8 -33 11 -25
25 7 11 36 4 36 -9z"/>
<path d="M7185 4010 c-13 -20 4 -60 25 -60 27 0 25 18 -2 23 l-23 4 23 8 c13
4 21 13 19 19 -5 15 -34 20 -42 6z"/>
<path d="M7254 4009 c-4 -7 1 -16 11 -21 14 -8 15 -12 4 -19 -7 -4 -10 -11 -6
-15 4 -4 12 -3 19 4 8 8 8 15 -1 26 -7 8 -10 20 -6 26 3 5 2 10 -4 10 -5 0
-13 -5 -17 -11z"/>
<path d="M7345 4009 c-4 -6 1 -17 11 -24 11 -9 14 -14 7 -15 -15 0 -18 -20 -3
-20 17 0 24 31 9 41 -12 8 -12 11 1 19 13 8 13 10 -2 10 -9 0 -20 -5 -23 -11z"/>
<path d="M7468 4014 c10 -5 9 -9 -4 -19 -21 -15 -11 -48 13 -43 27 5 25 62 -2
65 -11 2 -14 0 -7 -3z m17 -34 c3 -5 -1 -10 -10 -10 -9 0 -13 5 -10 10 3 6 8
10 10 10 2 0 7 -4 10 -10z"/>
<path d="M7530 4003 c0 -15 2 -15 9 -4 8 13 12 13 27 0 15 -12 17 -12 12 1 -7
23 -48 26 -48 3z"/>
<path d="M7618 4013 c7 -3 16 -2 19 1 4 3 -2 6 -13 5 -11 0 -14 -3 -6 -6z"/>
<path d="M7670 4005 c-10 -12 -11 -21 -3 -33 12 -20 43 -29 43 -13 0 6 -7 11
-15 11 -8 0 -15 5 -15 10 0 6 9 10 21 10 12 0 19 5 17 13 -7 19 -33 20 -48 2z"/>
<path d="M6700 3982 c-70 -34 -67 -31 -50 -42 21 -13 30 -12 24 3 -3 8 16 23
48 39 29 15 49 27 43 27 -5 0 -35 -12 -65 -27z"/>
<path d="M7312 3985 c0 -16 2 -22 5 -12 2 9 2 23 0 30 -3 6 -5 -1 -5 -18z"/>
<path d="M10897 4003 c-13 -12 -7 -54 9 -60 9 -3 23 2 32 13 16 17 16 17 0 5
-21 -15 -38 -7 -38 20 0 22 19 25 40 7 12 -11 12 -10 1 5 -14 17 -33 22 -44
10z"/>
<path d="M11053 3998 c-17 -21 2 -58 29 -57 l23 0 -22 9 c-29 12 -30 30 -2 30
12 0 19 5 17 13 -6 17 -33 20 -45 5z m34 -4 c-3 -3 -12 -4 -19 -1 -8 3 -5 6 6
6 11 1 17 -2 13 -5z"/>
<path d="M262 3973 c-2 -35 8 -46 32 -37 10 4 16 17 15 33 l-1 26 -7 -24 c-10
-37 -29 -37 -34 1 l-4 33 -1 -32z"/>
<path d="M483 3965 c0 -22 2 -30 4 -17 2 12 2 30 0 40 -3 9 -5 -1 -4 -23z"/>
<path d="M521 3981 c-6 -11 -11 -26 -11 -33 0 -7 6 -2 13 11 15 30 30 29 39
-1 6 -20 7 -19 5 7 -2 36 -31 46 -46 16z"/>
<path d="M597 3993 c-4 -3 -7 -24 -7 -45 0 -34 3 -38 25 -38 16 0 25 6 25 15
0 8 -7 15 -16 15 -14 0 -14 3 -4 15 10 12 9 15 -4 15 -10 0 -15 4 -11 10 3 5
12 7 20 3 8 -3 15 0 15 6 0 12 -32 15 -43 4z"/>
<path d="M8283 3920 c0 -47 2 -66 4 -42 2 23 2 61 0 85 -2 23 -4 4 -4 -43z"/>
<path d="M14305 3976 c28 -14 56 -25 63 -25 18 -1 15 -18 -5 -30 -10 -6 -15
-11 -11 -11 12 0 58 23 58 29 0 3 -26 16 -57 28 -86 33 -104 36 -48 9z"/>
<path d="M342 3965 c0 -16 2 -22 5 -12 2 9 2 23 0 30 -3 6 -5 -1 -5 -18z"/>
<path d="M7611 3964 c13 -16 29 -19 29 -5 0 5 -9 11 -21 14 -16 4 -18 3 -8 -9z"/>
<path d="M14687 3959 c-9 -6 -17 -15 -17 -22 0 -9 2 -9 8 -1 4 7 16 13 27 16
11 2 15 6 10 10 -6 3 -18 2 -28 -3z"/>
<path d="M14863 3925 c0 -27 2 -38 4 -22 2 15 2 37 0 50 -2 12 -4 0 -4 -28z"/>
<path d="M1690 3910 l0 -39 25 23 c14 13 25 31 25 40 0 10 -9 16 -25 16 -22 0
-25 -4 -25 -40z m40 15 c0 -8 -7 -15 -15 -15 -8 0 -15 7 -15 15 0 8 7 15 15
15 8 0 15 -7 15 -15z"/>
<path d="M3720 3911 c0 -22 5 -43 11 -47 13 -8 59 15 59 29 0 6 -9 2 -19 -7
-25 -23 -41 -13 -41 25 0 22 5 29 20 29 10 0 24 -8 29 -17 6 -10 11 -13 11 -7
0 17 -23 34 -47 34 -20 0 -23 -5 -23 -39z"/>
<path d="M940 3915 c-19 -20 -34 -25 -94 -28 l-71 -3 71 -2 c61 -2 74 -5 94
-27 25 -27 50 -31 81 -15 22 12 27 68 7 88 -20 20 -63 14 -88 -13z m75 -30 c0
-22 -31 -33 -47 -17 -17 17 -1 44 24 40 15 -2 23 -10 23 -23z"/>
<path d="M1187 3922 c-22 -24 -21 -55 1 -75 26 -24 59 -21 86 8 13 14 32 25
42 26 15 0 14 2 -5 10 -14 5 -31 19 -38 29 -18 25 -64 26 -86 2z m68 -37 c0
-22 -31 -33 -47 -17 -17 17 -1 44 24 40 15 -2 23 -10 23 -23z"/>
<path d="M14755 3929 c-4 -6 -4 -13 -1 -16 3 -4 6 -1 6 6 0 8 8 11 20 8 11 -3
18 -1 14 4 -7 12 -31 11 -39 -2z"/>
<path d="M14832 3910 c0 -19 2 -27 5 -17 2 9 2 25 0 35 -3 9 -5 1 -5 -18z"/>
<path d="M1765 3909 c-9 -27 14 -52 39 -43 25 10 17 58 -11 62 -15 2 -23 -3
-28 -19z m45 -8 c0 -11 -4 -22 -8 -25 -14 -9 -35 12 -29 28 9 23 37 20 37 -3z"/>
<path d="M1841 3914 c0 -11 3 -14 6 -6 3 7 2 16 -1 19 -3 4 -6 -2 -5 -13z"/>
<path d="M1881 3914 c0 -11 3 -14 6 -6 3 7 2 16 -1 19 -3 4 -6 -2 -5 -13z"/>
<path d="M1954 3916 c-10 -25 0 -51 21 -54 18 -2 19 -2 3 8 -24 15 -23 30 3
30 12 0 19 5 17 13 -7 18 -37 21 -44 3z"/>
<path d="M2025 3919 c-12 -18 3 -22 20 -5 14 14 14 16 1 16 -8 0 -18 -5 -21
-11z"/>
<path d="M3811 3903 c-1 -35 9 -46 33 -37 10 4 16 17 15 33 -1 25 -1 25 -7 3
-10 -33 -26 -32 -33 3 l-7 30 -1 -32z"/>
<path d="M3891 3914 c0 -11 3 -14 6 -6 3 7 2 16 -1 19 -3 4 -6 -2 -5 -13z"/>
<path d="M3917 3914 c6 -16 23 -19 23 -4 0 21 19 9 23 -15 4 -23 4 -23 3 2 -1
23 -6 28 -28 30 -20 1 -25 -2 -21 -13z"/>
<path d="M4001 3890 c0 -25 3 -40 7 -35 4 6 14 10 22 10 10 0 15 10 15 29 0
18 -6 31 -15 33 -12 4 -12 3 -2 -5 15 -10 13 -42 -3 -45 -5 -1 -13 12 -16 28
-6 26 -7 24 -8 -15z"/>
<path d="M6700 3920 c8 -5 20 -10 25 -10 6 0 3 5 -5 10 -8 5 -19 10 -25 10 -5
0 -3 -5 5 -10z"/>
<path d="M6748 3844 c3 -36 1 -161 -3 -279 l-7 -214 -87 -3 c-78 -3 -86 -5
-86 -23 0 -19 8 -20 193 -23 l193 -2 -3 22 c-3 22 -8 23 -95 26 l-93 3 0 274
c0 151 -4 276 -8 279 -4 2 -6 -25 -4 -60z"/>
<path d="M14265 3884 c-33 -14 -64 -30 -69 -35 -6 -5 26 -25 78 -49 49 -23 90
-39 92 -37 3 2 -32 21 -76 41 -71 32 -94 56 -57 56 15 0 116 48 102 49 -5 0
-37 -11 -70 -25z"/>
<path d="M14671 3905 c-1 -15 20 -35 36 -35 7 0 13 5 13 10 0 6 -9 10 -19 10
-11 0 -22 6 -24 13 -3 6 -6 7 -6 2z"/>
<path d="M15547 3903 c-11 -11 -8 -163 3 -163 6 0 10 35 10 85 0 85 -1 91 -13
78z"/>
<path d="M1907 3894 c-4 -4 -7 -14 -7 -23 0 -11 3 -12 11 -4 6 6 10 16 7 23
-2 6 -7 8 -11 4z"/>
<path d="M4777 3893 c-4 -3 -7 -24 -7 -45 0 -37 2 -39 27 -36 14 2 28 9 29 16
1 7 0 8 -3 2 -2 -5 -13 -10 -24 -10 -14 0 -19 7 -19 30 0 23 4 30 20 30 11 0
20 -5 20 -12 0 -6 3 -8 6 -5 4 4 1 13 -6 22 -13 16 -32 20 -43 8z"/>
<path d="M14753 3885 c2 -5 12 -10 22 -10 10 0 20 5 22 10 2 6 -8 10 -22 10
-14 0 -23 -4 -22 -10z"/>
<path d="M1340 3886 c0 -2 15 -6 34 -8 19 -2 32 0 30 4 -5 8 -64 12 -64 4z"/>
<path d="M1850 3880 c0 -5 5 -10 10 -10 6 0 10 5 10 10 0 6 -4 10 -10 10 -5 0
-10 -4 -10 -10z"/>
<path d="M4864 3840 c1 -18 7 -26 24 -28 19 -3 22 1 21 30 -2 30 -2 31 -6 6
-5 -34 -30 -37 -36 -5 -3 19 -4 19 -3 -3z"/>
<path d="M4930 3854 c0 -10 4 -12 13 -7 6 4 24 8 39 9 22 1 28 -3 31 -25 3
-23 4 -22 6 7 1 32 0 32 -44 32 -34 0 -45 -4 -45 -16z"/>
<path d="M5047 3863 c-4 -3 -7 -21 -7 -39 l0 -32 30 14 c36 18 37 21 8 20 -14
-1 -23 5 -23 14 0 9 9 15 23 14 12 0 22 3 22 8 0 10 -44 11 -53 1z"/>
<path d="M5880 3791 c0 -47 4 -81 10 -81 6 0 10 31 10 74 0 41 -4 78 -10 81
-6 4 -10 -23 -10 -74z"/>
<path d="M230 3798 c0 -24 4 -38 8 -32 4 6 15 13 25 17 26 10 18 51 -10 55
-21 3 -23 -1 -23 -40z m40 17 c0 -8 -7 -15 -15 -15 -16 0 -20 12 -8 23 11 12
23 8 23 -8z"/>
<path d="M311 3806 c-19 -23 -9 -51 18 -51 14 0 26 7 28 15 4 12 3 13 -5 1
-12 -17 -42 -8 -42 13 0 19 25 27 40 13 10 -9 11 -9 8 3 -6 21 -32 24 -47 6z"/>
<path d="M508 3813 c6 -2 12 -9 12 -14 0 -6 -4 -7 -10 -4 -5 3 -15 3 -20 0
-15 -9 7 -45 28 -44 16 1 16 2 0 6 -25 6 -22 23 3 23 15 0 19 4 15 16 -3 9 -6
18 -6 20 0 2 -8 4 -17 3 -11 0 -13 -3 -5 -6z"/>
<path d="M570 3810 c-8 -5 -11 -12 -7 -16 4 -4 15 0 24 9 18 18 8 23 -17 7z"/>
<path d="M386 3785 c2 -11 4 -23 4 -27 0 -15 20 -8 20 7 0 8 -4 15 -9 15 -5 0
-11 6 -14 13 -2 6 -3 3 -1 -8z"/>
<path d="M416 3795 c4 -8 8 -15 10 -15 2 0 4 7 4 15 0 8 -4 15 -10 15 -5 0 -7
-7 -4 -15z"/>
<path d="M3733 3793 c-8 -3 -13 -22 -13 -46 1 -34 3 -39 11 -24 8 14 14 16 25
6 12 -10 13 -9 8 5 -3 9 -12 16 -20 16 -8 0 -14 7 -14 15 0 18 26 20 33 3 4
-8 6 -7 6 3 1 18 -17 29 -36 22z"/>
<path d="M4098 3783 c14 -6 17 -63 2 -63 -5 0 -10 -4 -10 -10 0 -5 7 -10 15
-10 11 0 15 12 15 45 0 36 -3 45 -17 44 -11 0 -13 -3 -5 -6z"/>
<path d="M440 3764 c0 -8 5 -12 10 -9 6 3 10 10 10 16 0 5 -4 9 -10 9 -5 0
-10 -7 -10 -16z"/>
<path d="M2467 3773 l163 -3 2 -1303 3 -1302 60 -1 c58 -1 58 -1 8 3 l-53 4 0
1305 0 1304 -172 -2 -173 -2 162 -3z"/>
<path d="M13954 3690 c0 -52 1 -74 3 -47 2 26 2 68 0 95 -2 26 -3 4 -3 -48z"/>
<path d="M14470 3771 c0 -6 7 -8 15 -5 10 4 15 0 15 -11 0 -11 -5 -15 -15 -12
-28 11 -25 -12 3 -26 l29 -14 -1 36 c-1 29 -5 37 -23 39 -13 2 -23 -1 -23 -7z"/>
<path d="M14769 3769 c-2 -28 3 -64 11 -72 4 -5 6 10 4 33 -3 41 -13 67 -15
39z"/>
<path d="M3807 3764 c-4 -4 -7 -18 -7 -31 0 -25 20 -39 42 -30 8 4 5 8 -9 12
-29 9 -30 25 -2 25 12 0 19 5 17 13 -5 14 -31 21 -41 11z m30 -10 c-3 -3 -12
-4 -19 -1 -8 3 -5 6 6 6 11 1 17 -2 13 -5z"/>
<path d="M3940 3761 c25 -7 25 -7 3 -13 -23 -6 -31 -32 -14 -42 20 -13 42 7
39 33 -2 20 -9 26 -28 28 l-25 2 25 -8z m20 -31 c0 -5 -7 -10 -15 -10 -8 0
-15 5 -15 10 0 6 7 10 15 10 8 0 15 -4 15 -10z"/>
<path d="M1663 3744 c-3 -9 3 -21 16 -30 26 -18 27 -31 4 -37 -17 -4 -17 -5 0
-6 29 -2 33 29 7 49 -22 17 -22 18 -4 28 17 11 18 11 1 12 -10 0 -20 -7 -24
-16z"/>
<path d="M1963 3720 c0 -25 2 -35 4 -22 2 12 2 32 0 45 -2 12 -4 2 -4 -23z"/>
<path d="M14380 3745 c0 -8 -6 -15 -12 -15 -7 0 -35 -11 -63 -25 -60 -30 -22
-22 53 11 30 13 51 28 47 34 -9 15 -25 12 -25 -5z"/>
<path d="M14570 3751 c12 -9 11 -11 -7 -11 -13 0 -23 -4 -23 -9 0 -24 14 -41
34 -41 20 1 20 1 -4 15 l-25 15 23 6 c24 7 25 25 1 32 -11 3 -11 2 1 -7z"/>
<path d="M14614 3749 c-4 -7 1 -16 10 -21 14 -8 15 -13 5 -24 -8 -10 -9 -14 0
-14 17 0 26 31 11 40 -7 4 -9 13 -6 19 4 6 3 11 -3 11 -5 0 -13 -5 -17 -11z"/>
<path d="M14710 3747 c0 -7 6 -19 12 -25 10 -10 10 -15 -2 -22 -13 -8 -13 -10
2 -10 26 0 33 21 12 37 -16 12 -17 15 -4 23 13 8 12 10 -2 10 -10 0 -18 -6
-18 -13z"/>
<path d="M14828 3753 c10 -4 9 -9 -4 -24 -13 -14 -15 -22 -6 -31 18 -18 42 -1
42 32 0 25 -4 30 -22 29 -13 0 -17 -3 -10 -6z m17 -32 c3 -5 1 -12 -5 -16 -5
-3 -10 1 -10 9 0 18 6 21 15 7z"/>
<path d="M14897 3754 c-13 -13 -7 -27 6 -15 10 8 17 7 26 -2 11 -10 13 -9 9 3
-5 16 -30 25 -41 14z"/>
<path d="M14965 3741 c-8 -25 4 -51 24 -51 14 1 14 2 -1 14 -10 7 -18 18 -18
24 0 6 8 16 18 21 15 9 16 10 0 11 -9 0 -19 -8 -23 -19z"/>
<path d="M15031 3746 c-16 -19 2 -56 27 -56 16 1 16 1 0 11 -24 14 -23 29 3
29 12 0 19 5 17 13 -7 18 -33 20 -47 3z"/>
<path d="M4007 3732 c1 -8 3 -21 4 -30 0 -14 2 -13 9 3 12 27 12 37 1 31 -5
-4 -11 -3 -14 1 -2 5 -2 2 0 -5z"/>
<path d="M1733 3711 c1 -21 8 -36 17 -39 12 -4 13 -2 3 9 -6 8 -13 25 -16 39
-4 17 -5 15 -4 -9z"/>
<path d="M1810 3691 c0 -25 4 -41 8 -35 4 6 15 13 25 17 28 10 19 62 -10 63
-21 1 -23 -3 -23 -45z m40 8 c0 -20 -15 -26 -25 -9 -9 15 3 43 15 35 5 -3 10
-15 10 -26z"/>
<path d="M1903 3733 c-7 -2 -13 -20 -13 -39 0 -30 2 -33 23 -25 15 6 22 16 22
36 0 29 -10 37 -32 28z m27 -34 c0 -20 -15 -26 -25 -9 -9 15 3 43 15 35 5 -3
10 -15 10 -26z"/>
<path d="M2032 3713 c-10 -27 -11 -27 -17 -5 -4 12 -11 22 -17 22 -5 0 -4 -8
2 -19 5 -11 10 -30 10 -42 0 -29 14 -15 29 30 13 41 7 54 -7 14z"/>
<path d="M4777 3734 c-4 -4 -6 -26 -6 -48 1 -23 3 -33 6 -23 6 21 19 22 31 1
6 -11 9 -3 8 27 -1 31 -6 45 -16 47 -9 1 -19 0 -23 -4z m33 -30 c0 -16 -16
-19 -25 -4 -8 13 4 32 16 25 5 -4 9 -13 9 -21z"/>
<path d="M5138 3733 c6 -2 12 -11 12 -19 0 -9 4 -13 10 -9 14 9 0 35 -19 34
-10 0 -11 -2 -3 -6z"/>
<path d="M1770 3699 c0 -17 4 -28 10 -24 6 3 10 17 10 31 0 13 -4 24 -10 24
-5 0 -10 -14 -10 -31z"/>
<path d="M8284 3645 c0 -49 1 -71 3 -48 2 23 2 64 0 90 -2 26 -3 8 -3 -42z"/>
<path d="M4860 3712 c0 -6 3 -12 8 -15 4 -2 2 -3 -5 -1 -18 4 -23 -7 -12 -27
5 -11 19 -18 32 -18 l22 2 -22 4 c-29 6 -30 23 -2 23 14 0 19 5 17 17 -3 19
-38 32 -38 15z"/>
<path d="M4975 3710 c-3 -5 2 -10 11 -10 17 0 16 -1 -1 -13 -21 -16 -12 -37
16 -37 19 0 25 23 13 54 -7 18 -30 21 -39 6z m35 -40 c0 -5 -7 -10 -15 -10 -8
0 -15 5 -15 10 0 6 7 10 15 10 8 0 15 -4 15 -10z"/>
<path d="M13093 3660 c0 -25 2 -34 4 -21 4 18 10 22 29 18 13 -2 24 0 24 4 0
5 -11 9 -24 9 -15 0 -26 7 -29 18 -3 9 -5 -3 -4 -28z"/>
<path d="M13181 3689 c-2 -26 20 -79 30 -73 5 3 9 13 8 22 0 14 -2 14 -7 2 -4
-10 -10 -1 -18 25 -7 22 -13 33 -13 24z"/>
<path d="M13223 3685 c-3 -9 -3 -18 -1 -21 3 -3 8 4 11 16 6 23 -1 27 -10 5z"/>
<path d="M13599 3684 c-3 -21 3 -60 10 -67 5 -4 7 8 6 28 -2 33 -14 61 -16 39z"/>
<path d="M5058 3674 c-5 -4 -8 -16 -8 -28 0 -14 3 -17 11 -9 6 6 9 19 7 28 -1
9 -6 13 -10 9z"/>
<path d="M13335 3669 c-12 -18 3 -22 20 -5 14 14 14 16 1 16 -8 0 -18 -5 -21
-11z"/>
<path d="M13404 3666 c-10 -25 1 -51 20 -51 11 0 21 5 23 12 3 7 -3 9 -16 6
-17 -4 -21 -1 -21 17 0 17 4 21 20 17 11 -3 18 -1 14 4 -8 14 -34 11 -40 -5z"/>
<path d="M13540 3671 c25 -7 25 -7 3 -13 -23 -6 -31 -32 -14 -42 20 -13 42 7
39 33 -2 20 -9 26 -28 28 l-25 2 25 -8z m20 -31 c0 -5 -7 -10 -15 -10 -8 0
-15 5 -15 10 0 6 7 10 15 10 8 0 15 -4 15 -10z"/>
<path d="M13696 3671 c-3 -5 3 -7 14 -4 16 4 20 0 20 -17 0 -18 -4 -21 -21
-17 -13 3 -19 1 -16 -6 2 -7 12 -12 23 -12 25 0 28 58 2 63 -9 2 -19 -1 -22
-7z"/>
<path d="M13767 3674 c-4 -4 -7 -19 -6 -33 l1 -26 7 25 c10 35 38 38 44 5 4
-24 4 -24 3 2 -1 20 -7 29 -21 31 -12 2 -24 0 -28 -4z"/>
<path d="M14213 3668 c-13 -6 -23 -14 -23 -18 0 -3 23 -14 50 -24 l50 -18 0
-204 0 -204 -35 0 c-19 0 -35 -4 -35 -10 0 -5 16 -10 35 -10 l35 0 0 -95 0
-95 -314 0 -314 0 -16 25 c-31 47 -96 23 -96 -34 0 -54 47 -70 92 -33 l32 27
313 3 312 3 3 97 3 97 38 3 c20 2 37 7 37 12 0 5 -17 10 -37 12 l-38 3 -3 203
-2 203 -47 21 c-46 20 -46 20 -22 34 29 16 14 17 -18 2z m-585 -686 c4 -28
-24 -41 -44 -20 -20 20 -7 50 20 46 13 -2 22 -12 24 -26z"/>
<path d="M5124 3659 c-3 -5 6 -9 20 -9 31 0 34 6 6 13 -11 3 -23 1 -26 -4z"/>
<path d="M13362 3638 c2 -7 -3 -12 -9 -10 -7 1 -13 -2 -13 -8 0 -5 6 -10 14
-10 17 0 29 27 15 35 -5 4 -8 1 -7 -7z"/>
<path d="M15547 3633 c-11 -11 -8 -163 3 -163 6 0 10 35 10 85 0 85 -1 91 -13
78z"/>
<path d="M5880 3514 c0 -47 4 -73 10 -69 6 3 10 37 10 76 0 39 -4 69 -10 69
-6 0 -10 -32 -10 -76z"/>
<path d="M13223 3543 c-8 -3 -13 -22 -13 -46 1 -35 3 -39 11 -24 10 18 11 18
31 0 21 -18 21 -18 7 5 -8 12 -19 22 -26 22 -7 0 -13 7 -13 15 0 8 9 15 20 15
11 0 20 -5 20 -12 0 -6 3 -8 6 -5 7 7 -14 38 -25 36 -3 0 -12 -3 -18 -6z"/>
<path d="M13585 3540 c-4 -6 1 -10 9 -10 8 0 17 -8 19 -17 4 -14 5 -13 6 3 1
23 -24 40 -34 24z"/>
<path d="M13294 3506 c-10 -26 1 -51 24 -54 12 -2 22 1 22 7 0 6 -9 11 -20 11
-11 0 -20 5 -20 10 0 6 9 10 20 10 11 0 20 7 20 15 0 19 -39 20 -46 1z m33 -2
c-3 -3 -12 -4 -19 -1 -8 3 -5 6 6 6 11 1 17 -2 13 -5z"/>
<path d="M13430 3511 c25 -7 25 -7 3 -13 -23 -6 -31 -32 -14 -42 20 -13 42 7
39 33 -2 20 -9 26 -28 28 l-25 2 25 -8z m20 -31 c0 -5 -7 -10 -15 -10 -8 0
-15 5 -15 10 0 6 7 10 15 10 8 0 15 -4 15 -10z"/>
<path d="M13516 3498 c-7 -22 -7 -22 -16 -3 -10 24 -11 1 -1 -35 7 -24 8 -24
20 13 7 21 11 40 8 43 -2 3 -8 -6 -11 -18z"/>
<path d="M13954 3415 c0 -49 1 -71 3 -48 2 23 2 64 0 90 -2 26 -3 8 -3 -42z"/>
<path d="M10761 3433 c1 -27 4 -38 6 -25 2 12 12 22 21 22 15 1 15 2 -1 11
-18 10 -18 11 0 25 17 13 17 13 -4 14 -21 0 -23 -4 -22 -47z"/>
<path d="M10922 3434 c3 -34 6 -39 28 -39 20 0 26 6 28 28 2 15 -1 28 -7 28
-21 3 -26 4 -39 13 -10 6 -13 -1 -10 -30z m48 -14 c0 -11 -7 -20 -15 -20 -8 0
-15 9 -15 20 0 11 7 20 15 20 8 0 15 -9 15 -20z"/>
<path d="M11131 3430 c0 -31 2 -40 8 -31 8 13 12 13 27 0 15 -11 14 -9 -2 16
-12 17 -24 37 -27 45 -3 8 -6 -5 -6 -30z"/>
<path d="M13575 3460 c3 -5 15 -10 26 -10 10 0 19 5 19 10 0 6 -12 10 -26 10
-14 0 -23 -4 -19 -10z"/>
<path d="M8283 3370 c0 -47 2 -66 4 -42 2 23 2 61 0 85 -2 23 -4 4 -4 -43z"/>
<path d="M11024 3442 c19 -8 19 -9 -3 -15 -28 -7 -23 -31 8 -35 19 -3 22 0 19
25 -2 19 -9 29 -23 30 -19 3 -19 3 -1 -5z m16 -32 c0 -5 -7 -10 -15 -10 -8 0
-15 5 -15 10 0 6 7 10 15 10 8 0 15 -4 15 -10z"/>
<path d="M11080 3440 c0 -5 7 -7 15 -4 8 4 15 8 15 10 0 2 -7 4 -15 4 -8 0
-15 -4 -15 -10z"/>
<path d="M10876 3415 c2 -11 4 -27 4 -35 0 -13 1 -13 10 0 12 19 13 43 1 35
-5 -3 -11 0 -14 7 -2 7 -3 4 -1 -7z"/>
<path d="M11080 3400 c0 -6 7 -10 15 -10 8 0 15 2 15 4 0 2 -7 6 -15 10 -8 3
-15 1 -15 -4z"/>
<path d="M13470 3241 l0 -150 -45 -3 c-25 -2 -45 -7 -45 -13 0 -6 45 -11 110
-13 93 -2 110 0 110 13 0 11 -12 15 -50 15 l-49 0 -3 147 c-2 106 -6 147 -15
151 -10 3 -13 -31 -13 -147z"/>
<path d="M15540 3281 c0 -44 5 -83 10 -86 6 -4 10 25 10 79 0 51 -4 86 -10 86
-6 0 -10 -33 -10 -79z"/>
<path d="M7114 3316 c1 -42 26 -70 46 -50 8 8 4 10 -12 10 -19 -1 -24 6 -29
39 l-7 40 2 -39z"/>
<path d="M7172 3315 c0 -16 2 -22 5 -12 2 9 2 23 0 30 -3 6 -5 -1 -5 -18z"/>
<path d="M7240 3311 c0 -26 10 -51 21 -51 5 0 4 9 -3 19 -9 15 -9 23 1 35 11
13 11 16 -3 16 -9 0 -16 -8 -16 -19z"/>
<path d="M7295 3319 c-4 -6 -5 -12 -2 -15 2 -3 7 2 10 11 7 17 1 20 -8 4z"/>
<path d="M7354 3322 c19 -8 19 -9 -3 -15 -30 -7 -24 -41 7 -45 21 -3 23 0 20
30 -2 24 -8 33 -23 35 -19 3 -19 3 -1 -5z m16 -42 c0 -5 -7 -10 -15 -10 -8 0
-15 5 -15 10 0 6 7 10 15 10 8 0 15 -4 15 -10z"/>
<path d="M7415 3319 c-4 -6 -4 -13 -1 -16 3 -4 6 -1 6 5 0 6 8 13 18 15 15 4
15 5 0 6 -9 0 -20 -4 -23 -10z"/>
<path d="M7478 3323 c6 -2 18 -2 25 0 6 3 1 5 -13 5 -14 0 -19 -2 -12 -5z"/>
<path d="M7553 3323 c-8 -3 -13 -22 -12 -46 0 -23 3 -36 6 -29 2 6 10 12 18
12 7 0 19 8 26 18 13 15 12 16 -3 4 -19 -15 -38 -8 -38 13 0 21 19 28 37 13
14 -11 15 -11 11 2 -5 16 -25 22 -45 13z"/>
<path d="M5880 3245 c0 -43 4 -75 10 -75 6 0 10 32 10 75 0 43 -4 75 -10 75
-6 0 -10 -32 -10 -75z"/>
<path d="M10760 3274 c0 -43 1 -45 27 -42 14 2 28 9 29 16 1 7 0 8 -3 2 -2 -5
-13 -10 -24 -10 -14 0 -19 7 -19 29 0 35 15 48 35 31 9 -7 15 -8 15 -2 0 11
-23 22 -46 22 -10 0 -14 -13 -14 -46z"/>
<path d="M11174 3307 c13 -10 17 -20 12 -33 -5 -14 -4 -16 4 -8 17 17 8 48
-15 52 -20 4 -20 3 -1 -11z"/>
<path d="M7471 3296 c-9 -10 -8 -16 4 -26 20 -16 45 -6 45 20 0 23 -31 28 -49
6z m31 -18 c-9 -9 -15 -9 -24 0 -9 9 -7 12 12 12 19 0 21 -3 12 -12z"/>
<path d="M11010 3301 c0 -5 -8 -8 -17 -7 -13 1 -19 -8 -21 -31 -3 -30 -1 -33
22 -33 24 0 26 4 26 40 0 22 -2 40 -5 40 -3 0 -5 -4 -5 -9z m0 -41 c0 -11 -7
-20 -15 -20 -8 0 -15 9 -15 20 0 11 7 20 15 20 8 0 15 -9 15 -20z"/>
<path d="M10900 3285 c-19 -22 -8 -50 19 -50 14 0 25 6 27 13 1 7 0 8 -3 2 -9
-20 -43 -11 -43 11 0 17 5 20 25 17 20 -4 23 -3 14 8 -15 18 -24 18 -39 -1z"/>
<path d="M11054 3275 c-8 -31 6 -49 32 -42 16 4 15 5 -3 6 -29 1 -30 21 -2 21
25 0 23 33 -3 38 -12 2 -19 -5 -24 -23z"/>
<path d="M7410 3282 c0 -12 19 -26 26 -19 2 2 -2 10 -11 17 -9 8 -15 8 -15 2z"/>
<path d="M6566 3244 c-11 -28 4 -34 88 -34 l83 0 5 -132 c3 -73 3 -192 0 -265
l-5 -132 -86 -3 c-78 -3 -86 -5 -86 -23 0 -19 8 -20 193 -23 l193 -2 -3 22
c-3 22 -8 23 -95 26 l-93 3 0 264 0 265 96 0 c93 0 95 1 92 23 -3 22 -5 22
-189 25 -164 2 -187 0 -193 -14z"/>
<path d="M11154 3239 c-3 -5 6 -9 20 -9 31 0 34 6 6 13 -11 3 -23 1 -26 -4z"/>
<path d="M13952 3210 c3 -24 6 -25 77 -28 42 -2 79 2 85 8 7 7 -13 10 -67 10
-62 0 -78 3 -87 18 -9 15 -10 14 -8 -8z"/>
<path d="M14485 3190 c3 -5 39 -10 80 -10 41 0 77 5 80 10 4 6 -25 10 -80 10
-55 0 -84 -4 -80 -10z"/>
<path d="M14755 3190 c3 -5 39 -10 80 -10 41 0 77 5 80 10 4 6 -25 10 -80 10
-55 0 -84 -4 -80 -10z"/>
<path d="M15020 3190 c0 -6 33 -10 80 -10 47 0 80 4 80 10 0 6 -33 10 -80 10
-47 0 -80 -4 -80 -10z"/>
<path d="M15285 3190 c3 -5 42 -10 86 -10 46 0 79 4 79 10 0 6 -35 10 -86 10
-54 0 -83 -4 -79 -10z"/>
<path d="M8283 3100 c0 -47 2 -66 4 -42 2 23 2 61 0 85 -2 23 -4 4 -4 -43z"/>
<path d="M5880 2969 c0 -51 4 -78 10 -74 6 3 10 40 10 81 0 43 -4 74 -10 74
-6 0 -10 -34 -10 -81z"/>
<path d="M13326 3015 l-23 -25 -307 0 -306 0 0 -1225 0 -1225 -227 -3 -228 -2
232 -3 233 -2 2 1223 3 1222 302 0 c297 0 303 0 318 -21 33 -48 95 -29 95 30
0 59 -52 76 -94 31z m71 -21 c3 -8 -2 -23 -11 -32 -15 -15 -17 -15 -32 0 -21
21 -11 48 16 48 11 0 23 -7 27 -16z"/>
<path d="M8283 2820 c0 -47 2 -66 4 -42 2 23 2 61 0 85 -2 23 -4 4 -4 -43z"/>
<path d="M4350 2840 c-8 -5 -10 -10 -5 -10 6 0 17 5 25 10 8 5 11 10 5 10 -5
0 -17 -5 -25 -10z"/>
<path d="M4265 2809 c-60 -25 -63 -28 -45 -39 21 -13 30 -12 24 3 -3 8 13 21
43 34 62 27 44 28 -22 2z"/>
<path d="M4642 2728 c2 -36 7 -44 25 -46 16 -2 26 4 34 21 15 34 -3 67 -37 67
-23 0 -25 -3 -22 -42z m52 16 c8 -20 -12 -56 -27 -51 -7 2 -13 18 -15 35 -3
26 0 32 16 32 11 0 23 -7 26 -16z"/>
<path d="M5880 2695 c0 -43 4 -75 10 -75 6 0 10 32 10 75 0 43 -4 75 -10 75
-6 0 -10 -32 -10 -75z"/>
<path d="M4315 2731 c33 -16 66 -30 73 -30 6 -1 12 -8 12 -17 0 -9 5 -14 12
-12 30 10 13 27 -49 51 -103 38 -114 40 -48 8z"/>
<path d="M4817 2743 c-13 -12 -7 -26 6 -14 10 7 17 7 24 0 8 -8 13 -8 17 0 13
20 25 11 29 -21 l5 -33 -2 35 c-1 32 -3 35 -37 37 -19 2 -39 0 -42 -4z"/>
<path d="M4933 2743 c-7 -2 -13 -20 -13 -38 0 -31 2 -33 28 -26 22 6 27 13 27
37 0 28 -15 39 -42 27z m33 -18 c3 -8 3 -19 -1 -25 -10 -16 -35 7 -28 26 7 18
22 18 29 -1z"/>
<path d="M4731 2718 c-1 -15 3 -29 8 -32 12 -8 41 4 41 16 0 6 -6 5 -15 -2
-12 -10 -16 -10 -19 1 -13 40 -14 42 -15 17z"/>
<path d="M4291 2630 c-48 -23 -80 -44 -75 -49 5 -4 45 -22 89 -40 115 -46 115
-44 40 -76 -36 -15 -64 -29 -62 -31 6 -7 133 51 134 61 0 6 -38 27 -85 47 -48
20 -88 41 -90 46 -1 5 32 25 75 44 43 20 74 36 68 37 -5 0 -48 -18 -94 -39z"/>
<path d="M7094 2610 c1 -41 3 -45 26 -45 22 0 25 4 26 38 l1 37 -4 -36 c-6
-50 -36 -43 -44 11 l-7 40 2 -45z"/>
<path d="M7222 2598 c2 -17 9 -33 16 -34 7 -1 8 0 2 3 -14 7 -13 36 2 51 9 9
8 12 -6 12 -13 0 -17 -7 -14 -32z"/>
<path d="M7330 2621 c13 -9 12 -12 -4 -24 -22 -16 -14 -37 15 -37 17 0 20 6
17 32 -2 24 -9 34 -23 36 -16 3 -17 1 -5 -7z m20 -41 c0 -5 -7 -10 -15 -10 -8
0 -15 5 -15 10 0 6 7 10 15 10 8 0 15 -4 15 -10z"/>
<path d="M7395 2620 c-3 -5 -2 -10 4 -10 5 0 13 5 16 10 3 6 2 10 -4 10 -5 0
-13 -4 -16 -10z"/>
<path d="M7464 2623 c19 -5 18 -6 -4 -23 -25 -19 -20 -40 11 -40 29 0 23 64
-6 67 -19 2 -19 2 -1 -4z m16 -43 c0 -5 -7 -10 -15 -10 -8 0 -15 5 -15 10 0 6
7 10 15 10 8 0 15 -4 15 -10z"/>
<path d="M7533 2623 c-8 -3 -13 -22 -12 -46 0 -23 3 -36 6 -29 2 6 13 12 24
12 10 0 19 4 19 10 0 5 -7 7 -15 4 -17 -7 -31 19 -20 36 5 8 11 7 23 -2 13
-11 14 -11 11 1 -6 17 -18 22 -36 14z"/>
<path d="M8283 2550 c0 -47 2 -66 4 -42 2 23 2 61 0 85 -2 23 -4 4 -4 -43z"/>
<path d="M7265 2610 c-3 -5 -1 -10 4 -10 6 0 11 5 11 10 0 6 -2 10 -4 10 -3 0
-8 -4 -11 -10z"/>
<path d="M4550 2548 c0 -39 1 -40 14 -22 14 18 15 18 21 2 4 -10 11 -18 17
-18 5 0 6 6 1 12 -4 7 -6 25 -4 40 2 24 -1 28 -23 28 -24 0 -26 -4 -26 -42z
m40 17 c0 -8 -7 -15 -15 -15 -16 0 -20 12 -8 23 11 12 23 8 23 -8z"/>
<path d="M4856 2582 c-7 -11 4 -82 13 -82 7 0 5 79 -2 86 -3 3 -8 1 -11 -4z"/>
<path d="M6564 2576 c-11 -29 7 -36 92 -36 l84 0 1 -92 c1 -51 4 -131 8 -178
7 -74 8 -62 9 93 l2 177 96 0 c93 0 95 1 92 23 -3 22 -5 22 -191 25 -158 2
-188 0 -193 -12z"/>
<path d="M7390 2569 c0 -5 9 -9 20 -9 11 0 20 2 20 4 0 2 -9 6 -20 9 -11 3
-20 1 -20 -4z"/>
<path d="M4655 2561 c20 -9 20 -10 -1 -10 -11 -1 -24 -4 -27 -7 -12 -13 14
-44 36 -43 l22 0 -23 10 c-25 9 -21 29 4 29 22 0 11 25 -12 27 -18 3 -18 2 1
-6z"/>
<path d="M4705 2559 c-4 -6 1 -16 11 -23 16 -13 16 -14 -2 -24 -16 -10 -17
-11 -2 -12 26 0 32 19 13 40 -15 17 -15 19 2 23 15 4 16 5 1 6 -9 0 -20 -4
-23 -10z"/>
<path d="M4794 2559 c-4 -7 1 -16 10 -21 21 -12 20 -25 -1 -31 -14 -4 -12 -5
5 -6 26 -1 29 20 6 40 -14 12 -14 14 3 20 16 7 16 8 1 8 -9 1 -20 -4 -24 -10z"/>
<path d="M4904 2556 c-10 -26 0 -51 22 -54 13 -2 24 4 28 14 5 14 4 15 -8 5
-17 -14 -36 -7 -36 14 0 21 19 28 37 13 14 -11 16 -11 11 2 -6 21 -47 25 -54
6z"/>
<path d="M4987 2563 c-4 -3 -6 -18 -6 -32 1 -21 2 -22 6 -6 3 11 12 26 21 33
14 10 14 12 1 12 -9 0 -19 -3 -22 -7z"/>
<path d="M5035 2559 c-4 -6 1 -16 11 -23 16 -13 16 -14 -2 -24 -16 -10 -17
-11 -2 -12 26 0 32 19 13 40 -15 17 -15 19 2 23 15 4 16 5 1 6 -9 0 -20 -4
-23 -10z"/>
<path d="M4762 2535 c0 -16 2 -22 5 -12 2 9 2 23 0 30 -3 6 -5 -1 -5 -18z"/>
<path d="M5880 2425 c0 -43 4 -75 10 -75 6 0 10 32 10 75 0 43 -4 75 -10 75
-6 0 -10 -32 -10 -75z"/>
<path d="M8283 2280 c0 -47 2 -66 4 -42 2 23 2 61 0 85 -2 23 -4 4 -4 -43z"/>
<path d="M5880 2150 c0 -52 4 -79 10 -75 6 3 10 37 10 75 0 38 -4 72 -10 75
-6 4 -10 -23 -10 -75z"/>
<path d="M6482 2103 c1 -37 2 -40 5 -15 2 17 8 32 13 32 5 0 7 7 4 15 -12 31
-24 13 -22 -32z"/>
<path d="M6542 2123 c-1 -17 -6 -33 -12 -35 -6 -2 -6 -9 0 -18 14 -23 22 -6
17 41 -3 33 -4 36 -5 12z"/>
<path d="M6603 2135 c-5 -15 21 -44 42 -45 5 0 -1 7 -13 16 -27 18 -28 31 -4
37 16 4 16 5 -1 6 -10 0 -20 -6 -24 -14z"/>
<path d="M6669 2098 c4 -17 13 -33 21 -36 13 -3 13 -2 1 6 -9 7 -11 19 -7 36
5 19 2 26 -8 26 -10 0 -12 -8 -7 -32z"/>
<path d="M6728 2123 c7 -3 16 -2 19 1 4 3 -2 6 -13 5 -11 0 -14 -3 -6 -6z"/>
<path d="M6797 2123 c-4 -3 -7 -15 -7 -25 0 -28 34 -19 38 10 3 21 -16 31 -31
15z m23 -23 c0 -5 -4 -10 -10 -10 -5 0 -10 5 -10 10 0 6 5 10 10 10 6 0 10 -4
10 -10z"/>
<path d="M6883 2124 c9 -3 17 -10 17 -15 0 -6 -9 -7 -21 -4 -17 6 -20 3 -17
-17 2 -16 10 -23 28 -25 22 -1 22 -1 3 4 -29 6 -30 23 -2 23 27 0 22 34 -6 37
-16 1 -16 1 -2 -3z"/>
<path d="M6937 2115 c-4 -8 -2 -17 3 -20 6 -4 10 0 10 9 0 8 6 17 13 19 7 4 6
6 -4 6 -9 1 -19 -6 -22 -14z"/>
<path d="M6720 2095 c-16 -19 -4 -35 26 -35 19 0 24 5 24 25 0 29 -29 35 -50
10z m35 -15 c-3 -5 -13 -10 -21 -10 -8 0 -14 5 -14 10 0 6 9 10 21 10 11 0 17
-4 14 -10z"/>
<path d="M6965 2081 c3 -5 -5 -12 -17 -14 -20 -4 -19 -4 5 -6 18 -1 27 4 27
14 0 8 -5 15 -11 15 -5 0 -8 -4 -4 -9z"/>
<path d="M8283 2000 c0 -47 2 -66 4 -42 2 23 2 61 0 85 -2 23 -4 4 -4 -43z"/>
<path d="M6608 2063 c6 -2 18 -2 25 0 6 3 1 5 -13 5 -14 0 -19 -2 -12 -5z"/>
<path d="M6787 2064 c-10 -11 3 -24 24 -24 10 0 19 7 19 15 0 15 -31 21 -43 9z
m30 -10 c-3 -3 -12 -4 -19 -1 -8 3 -5 6 6 6 11 1 17 -2 13 -5z"/>
<path d="M10289 2023 c-13 -15 -12 -15 9 -4 23 12 28 21 13 21 -5 0 -15 -7
-22 -17z"/>
<path d="M10528 2033 c21 -8 13 -25 -10 -18 -17 6 -20 4 -15 -10 4 -9 7 -21 7
-26 0 -5 12 -8 28 -8 23 2 24 2 5 6 -29 6 -30 23 -2 23 15 0 19 4 15 16 -3 9
-6 18 -6 20 0 2 -8 4 -17 3 -11 0 -13 -3 -5 -6z"/>
<path d="M10598 2032 c-13 -2 -18 -13 -17 -35 1 -30 1 -30 8 -7 10 36 39 38
44 3 l4 -28 2 26 c1 30 -16 47 -41 41z"/>
<path d="M10658 2005 c3 -24 9 -35 21 -35 13 0 13 2 2 9 -9 6 -11 18 -7 35 4
18 2 26 -7 26 -9 0 -12 -11 -9 -35z"/>
<path d="M10344 2000 c1 -18 7 -26 24 -28 19 -3 22 1 21 30 -2 30 -2 31 -6 6
-5 -34 -30 -37 -36 -5 -3 19 -4 19 -3 -3z"/>
<path d="M10422 2000 c0 -19 2 -27 5 -17 2 9 2 25 0 35 -3 9 -5 1 -5 -18z"/>
<path d="M10460 2000 c0 -16 2 -30 4 -30 2 0 6 14 8 30 3 17 1 30 -4 30 -4 0
-8 -13 -8 -30z"/>
<path d="M6746 1798 l-8 -207 -87 -3 c-78 -3 -86 -5 -86 -23 0 -19 8 -20 193
-23 l193 -2 -3 22 c-3 22 -8 23 -95 26 l-93 3 -2 207 -3 207 -9 -207z"/>
<path d="M10288 1978 c5 -5 16 -8 23 -6 8 3 3 7 -10 11 -17 4 -21 3 -13 -5z"/>
<path d="M5880 1876 c0 -41 5 -78 10 -81 6 -4 10 21 10 69 0 41 -4 78 -10 81
-6 4 -10 -21 -10 -69z"/>
<path d="M10215 1892 c-34 -30 -25 -27 19 6 16 12 25 22 20 22 -5 0 -23 -13
-39 -28z"/>
<path d="M10287 1865 c-4 -8 -2 -17 3 -20 6 -4 10 0 10 9 0 8 6 17 13 19 7 4
6 6 -4 6 -9 1 -19 -6 -22 -14z"/>
<path d="M10368 1873 c7 -3 16 -2 19 1 4 3 -2 6 -13 5 -11 0 -14 -3 -6 -6z"/>
<path d="M10424 1864 c3 -9 6 -24 6 -35 0 -35 15 -20 16 16 0 24 -4 35 -14 35
-9 0 -12 -6 -8 -16z"/>
<path d="M10538 1869 c17 -18 15 -49 -3 -49 -9 0 -15 10 -16 28 l-1 27 -8 -29
c-6 -17 -5 -36 0 -45 5 -9 10 -11 10 -5 0 7 9 14 21 17 16 4 20 12 17 33 -2
15 -10 29 -18 32 -12 4 -13 2 -2 -9z"/>
<path d="M10589 1863 c-13 -16 -12 -17 3 -5 21 17 38 8 38 -19 0 -20 -34 -27
-43 -9 -3 6 -4 5 -3 -2 4 -20 50 -16 54 5 4 18 -14 47 -28 47 -4 0 -14 -8 -21
-17z"/>
<path d="M10713 1873 c-7 -2 -13 -19 -12 -36 l1 -32 9 33 c12 39 31 37 40 -4
5 -22 7 -24 8 -7 2 45 -13 60 -46 46z"/>
<path d="M10779 1848 c4 -17 13 -33 21 -36 13 -3 13 -2 1 6 -9 7 -11 19 -7 36
5 19 2 26 -8 26 -10 0 -12 -8 -7 -32z"/>
<path d="M10352 1836 c2 -14 11 -21 26 -22 18 -1 19 -1 2 3 -26 6 -26 23 -1
23 11 0 22 4 26 9 3 5 -8 9 -25 9 -26 -1 -30 -5 -28 -22z"/>
<path d="M10315 1831 c3 -5 -4 -12 -15 -14 -18 -4 -18 -5 2 -3 22 1 39 26 18
26 -6 0 -9 -4 -5 -9z"/>
<path d="M10104 1808 c-41 -30 -52 -42 -29 -30 26 15 72 51 64 52 -4 0 -19
-10 -35 -22z"/>
<path d="M8283 1730 c0 -47 2 -66 4 -42 2 23 2 61 0 85 -2 23 -4 4 -4 -43z"/>
<path d="M9995 1725 c-39 -32 -28 -32 15 0 19 14 30 25 24 25 -5 0 -22 -11
-39 -25z"/>
<path d="M8862 1698 c-7 -7 -12 -16 -12 -22 0 -5 6 -1 14 9 8 11 19 16 30 12
10 -4 15 -3 11 3 -8 14 -28 13 -43 -2z"/>
<path d="M8940 1701 c0 -6 9 -11 20 -11 11 0 20 -5 20 -11 0 -6 -9 -9 -20 -6
-12 3 -20 0 -20 -8 0 -8 8 -11 20 -8 14 4 20 0 20 -10 0 -9 -10 -18 -22 -20
-20 -4 -19 -4 4 -6 26 -1 28 1 25 42 -2 35 -6 43 -24 45 -13 2 -23 -1 -23 -7z"/>
<path d="M9015 1700 c3 -5 12 -10 20 -10 8 0 17 5 20 10 4 6 -5 10 -20 10 -15
0 -24 -4 -20 -10z"/>
<path d="M9117 1703 c-4 -3 -7 -24 -7 -45 0 -31 4 -38 19 -38 28 0 51 10 51
23 0 7 -4 7 -12 -1 -23 -23 -48 -14 -48 17 0 35 18 44 43 23 19 -17 24 -3 5
16 -13 13 -41 16 -51 5z"/>
<path d="M5880 1600 c0 -52 4 -79 10 -75 6 3 10 37 10 75 0 38 -4 72 -10 75
-6 4 -10 -23 -10 -75z"/>
<path d="M9201 1648 c2 -28 2 -29 6 -8 3 14 10 28 17 32 7 5 5 8 -6 8 -14 0
-18 -8 -17 -32z"/>
<path d="M9316 1658 c-7 -22 -7 -22 -16 -3 -10 23 -13 5 -4 -19 9 -24 21 -19
28 10 9 33 1 43 -8 12z"/>
<path d="M9344 1666 c-10 -25 3 -46 28 -45 l23 2 -22 4 c-31 6 -29 23 3 23 16
0 24 5 22 13 -7 18 -47 21 -54 3z m43 -2 c-3 -3 -12 -4 -19 -1 -8 3 -5 6 6 6
11 1 17 -2 13 -5z"/>
<path d="M9421 1648 c2 -28 2 -29 6 -8 3 14 10 28 17 32 7 5 5 8 -6 8 -14 0
-18 -8 -17 -32z"/>
<path d="M8888 1653 c6 -2 12 -9 12 -14 0 -12 -37 -11 -43 1 -3 6 -4 5 -3 -2
1 -7 15 -14 29 -16 22 -3 27 1 27 17 0 14 -6 21 -17 20 -11 0 -13 -3 -5 -6z"/>
<path d="M9893 1650 c-13 -5 -23 -14 -23 -20 0 -6 11 -3 25 6 14 9 25 18 25
20 0 5 0 5 -27 -6z"/>
<path d="M9825 1639 c-4 -6 -5 -12 -2 -15 2 -3 7 2 10 11 7 17 1 20 -8 4z"/>
<path d="M9845 1610 c-3 -5 -1 -10 4 -10 6 0 11 5 11 10 0 6 -2 10 -4 10 -3 0
-8 -4 -11 -10z"/>
<path d="M7121 1550 c-1 -38 13 -60 39 -59 10 0 9 3 -5 8 -13 5 -22 21 -26 47
l-6 39 -2 -35z"/>
<path d="M7183 1545 c0 -22 2 -30 4 -17 2 12 2 30 0 40 -3 9 -5 -1 -4 -23z"/>
<path d="M7250 1550 c0 -5 4 -10 9 -10 6 0 13 5 16 10 3 6 -1 10 -9 10 -9 0
-16 -4 -16 -10z"/>
<path d="M7304 1546 c-3 -8 -4 -23 -1 -33 3 -12 5 -9 6 9 0 14 7 29 14 31 9 4
9 6 -1 6 -7 1 -15 -5 -18 -13z"/>
<path d="M7353 1553 c9 -2 23 -2 30 0 6 3 -1 5 -18 5 -16 0 -22 -2 -12 -5z"/>
<path d="M7425 1549 c-4 -6 -4 -13 -1 -16 3 -4 6 -1 6 5 0 6 8 13 18 15 15 4
15 5 0 6 -9 0 -20 -4 -23 -10z"/>
<path d="M7488 1553 c6 -2 18 -2 25 0 6 3 1 5 -13 5 -14 0 -19 -2 -12 -5z"/>
<path d="M7563 1553 c-8 -3 -13 -22 -12 -46 0 -23 3 -36 6 -29 2 6 13 12 24
12 10 0 19 4 19 10 0 5 -6 7 -14 4 -16 -6 -27 18 -16 36 7 11 11 11 26 -1 15
-12 17 -12 12 1 -5 16 -25 22 -45 13z"/>
<path d="M7350 1525 c-6 -8 -9 -19 -5 -25 8 -13 42 -13 50 0 4 7 -2 9 -19 4
-16 -4 -26 -2 -26 5 0 6 11 11 25 11 14 0 25 5 25 10 0 15 -36 12 -50 -5z"/>
<path d="M7481 1526 c-9 -11 -6 -12 14 -8 31 5 33 -6 3 -18 -22 -8 -22 -9 5
-9 22 -1 27 3 27 24 0 28 -29 35 -49 11z"/>
<path d="M8283 1450 c0 -47 2 -66 4 -42 2 23 2 61 0 85 -2 23 -4 4 -4 -43z"/>
<path d="M7423 1510 c2 -8 12 -16 23 -17 13 -2 15 -1 4 4 -8 3 -19 11 -23 17
-6 7 -7 6 -4 -4z"/>
<path d="M7260 1500 c0 -5 5 -10 11 -10 5 0 7 5 4 10 -3 6 -8 10 -11 10 -2 0
-4 -4 -4 -10z"/>
<path d="M10020 1408 c19 -11 51 -31 70 -43 68 -43 105 -63 130 -69 l25 -6
-25 12 c-14 6 -69 38 -122 70 -54 32 -101 58 -105 58 -5 0 8 -10 27 -22z"/>
<path d="M5880 1324 c0 -47 4 -73 10 -69 6 3 10 37 10 76 0 39 -4 69 -10 69
-6 0 -10 -32 -10 -76z"/>
<path d="M10533 1328 c-5 -7 -6 -26 -2 -43 l7 -30 1 28 c0 15 1 30 0 33 0 4 5
11 13 15 8 5 9 9 2 9 -6 0 -16 -6 -21 -12z"/>
<path d="M10769 1322 c-3 -20 4 -58 13 -67 6 -7 7 0 2 19 -4 18 -2 31 5 36 9
5 9 9 -3 13 -9 4 -16 3 -17 -1z"/>
<path d="M10276 1311 c-4 -5 3 -7 14 -4 23 6 26 13 6 13 -8 0 -17 -4 -20 -9z"/>
<path d="M10335 1309 c-4 -6 -4 -13 -1 -16 3 -4 6 -1 6 6 0 8 8 11 20 8 11 -3
18 -1 14 4 -7 12 -31 11 -39 -2z"/>
<path d="M10615 1311 c-9 -16 9 -20 23 -5 10 12 10 14 -2 14 -8 0 -17 -4 -21
-9z"/>
<path d="M10664 1306 c-11 -28 1 -51 26 -53 22 -1 22 -1 3 4 -32 6 -29 31 5
36 l27 4 -30 2 c-30 3 -30 3 -5 11 24 8 24 8 2 9 -12 1 -25 -5 -28 -13z"/>
<path d="M10815 1309 c-11 -17 1 -21 15 -4 8 9 8 15 2 15 -6 0 -14 -5 -17 -11z"/>
<path d="M10900 1285 c0 -30 3 -35 23 -35 18 0 19 2 7 10 -13 9 -13 11 0 20
13 8 12 10 -2 10 -10 0 -18 5 -18 11 0 6 7 9 15 6 8 -4 17 -2 20 3 4 6 -5 10
-19 10 -23 0 -26 -4 -26 -35z"/>
<path d="M10970 1285 c0 -26 4 -35 18 -36 14 0 14 -2 -3 -9 -19 -8 -19 -9 3
-9 13 -1 22 5 22 14 0 8 -7 15 -15 15 -8 0 -15 4 -15 9 0 5 7 11 15 15 22 8
18 36 -5 36 -16 0 -20 -7 -20 -35z m30 15 c0 -5 -4 -10 -10 -10 -5 0 -10 5
-10 10 0 6 5 10 10 10 6 0 10 -4 10 -10z"/>
<path d="M11065 1311 c18 -9 17 -10 -7 -10 -17 -1 -28 -7 -28 -15 0 -20 26
-38 47 -33 14 4 13 5 -4 6 -29 1 -31 31 -2 31 26 0 20 24 -7 27 -18 3 -18 2 1
-6z"/>
<path d="M11114 1306 c-3 -8 -4 -23 -1 -33 3 -12 5 -9 6 9 0 14 7 29 14 31 9
4 9 6 -1 6 -7 1 -15 -5 -18 -13z"/>
<path d="M10270 1270 c0 -6 7 -13 15 -17 24 -9 27 1 5 15 -13 8 -20 8 -20 2z"/>
<path d="M10334 1268 c2 -7 11 -13 21 -13 10 0 19 6 21 13 1 7 0 8 -3 2 -2 -5
-11 -10 -18 -10 -7 0 -16 5 -18 10 -3 6 -4 5 -3 -2z"/>
<path d="M8283 1180 c0 -47 2 -66 4 -42 2 23 2 61 0 85 -2 23 -4 4 -4 -43z"/>
<path d="M10908 1233 c6 -2 18 -2 25 0 6 3 1 5 -13 5 -14 0 -19 -2 -12 -5z"/>
<path d="M5880 1049 c0 -51 4 -78 10 -74 6 3 10 40 10 81 0 43 -4 74 -10 74
-6 0 -10 -34 -10 -81z"/>
<path d="M8283 910 c0 -47 2 -66 4 -42 2 23 2 61 0 85 -2 23 -4 4 -4 -43z"/>
<path d="M5882 833 c3 -15 16 -18 86 -21 52 -2 82 1 82 8 0 6 -30 10 -75 10
-43 0 -75 4 -75 10 0 6 -5 10 -11 10 -6 0 -9 -8 -7 -17z"/>
<path d="M6150 820 c0 -6 33 -10 80 -10 47 0 80 4 80 10 0 6 -33 10 -80 10
-47 0 -80 -4 -80 -10z"/>
<path d="M6420 820 c0 -6 33 -10 80 -10 47 0 80 4 80 10 0 6 -33 10 -80 10
-47 0 -80 -4 -80 -10z"/>
<path d="M6950 820 c0 -6 33 -10 80 -10 47 0 80 4 80 10 0 6 -33 10 -80 10
-47 0 -80 -4 -80 -10z"/>
<path d="M7220 820 c0 -6 33 -10 80 -10 47 0 80 4 80 10 0 6 -33 10 -80 10
-47 0 -80 -4 -80 -10z"/>
<path d="M7490 820 c0 -6 33 -10 80 -10 47 0 80 4 80 10 0 6 -33 10 -80 10
-47 0 -80 -4 -80 -10z"/>
<path d="M7755 820 c-4 -6 23 -10 74 -10 47 0 81 4 81 10 0 6 -31 10 -74 10
-41 0 -78 -4 -81 -10z"/>
<path d="M8020 820 c0 -6 33 -10 80 -10 47 0 80 4 80 10 0 6 -33 10 -80 10
-47 0 -80 -4 -80 -10z"/>
<path d="M10308 533 c139 -2 364 -2 500 0 136 1 22 2 -253 2 -275 0 -386 -1
-247 -2z"/>
<path d="M9223 360 c0 -30 2 -43 4 -27 2 15 2 39 0 55 -2 15 -4 2 -4 -28z"/>
<path d="M9253 360 c0 -30 2 -43 4 -27 2 15 2 39 0 55 -2 15 -4 2 -4 -28z"/>
<path d="M8322 391 c-8 -5 -12 -22 -10 -42 2 -28 7 -34 28 -36 l25 -3 -23 10
c-32 14 -28 65 5 64 12 0 20 3 17 8 -7 10 -25 10 -42 -1z"/>
<path d="M8812 388 c-29 -29 -3 -85 35 -75 15 4 14 5 -4 6 -24 1 -37 29 -27
55 5 12 14 16 30 13 13 -2 21 0 18 4 -8 13 -38 11 -52 -3z"/>
<path d="M8475 369 c-11 -17 1 -21 15 -4 8 9 8 15 2 15 -6 0 -14 -5 -17 -11z"/>
<path d="M8521 343 c1 -28 3 -31 6 -13 3 14 10 31 15 38 8 9 6 12 -6 12 -12 0
-16 -9 -15 -37z"/>
<path d="M8574 366 c-11 -28 1 -51 26 -53 22 -1 22 -1 3 4 -28 6 -30 23 -3 23
28 0 25 20 -2 21 -22 0 -22 1 -3 9 18 8 18 9 2 9 -10 1 -20 -5 -23 -13z"/>
<path d="M8652 373 c-6 -2 -9 -9 -6 -15 4 -6 10 -5 15 3 8 12 11 11 19 -1 8
-13 10 -12 10 3 0 17 -13 20 -38 10z"/>
<path d="M8719 348 c9 -44 26 -46 26 -3 0 26 -4 35 -16 35 -13 0 -15 -6 -10
-32z"/>
<path d="M8884 354 c-4 -14 -2 -30 4 -36 14 -14 44 -6 50 12 4 13 3 13 -11 2
-18 -15 -37 -8 -37 13 0 21 19 28 36 14 12 -10 13 -9 8 5 -10 26 -43 20 -50
-10z"/>
<path d="M8973 373 c-7 -2 -12 -19 -12 -36 l1 -32 7 29 c8 39 29 44 34 9 l4
-28 -1 29 c-1 30 -11 38 -33 29z"/>
<path d="M9038 368 c9 -9 15 -9 24 0 9 9 7 12 -12 12 -19 0 -21 -3 -12 -12z"/>
<path d="M9091 341 c1 -28 3 -30 6 -11 3 14 9 30 14 36 5 7 3 11 -6 11 -11 0
-15 -11 -14 -36z"/>
<path d="M9139 358 c-12 -23 -12 -23 10 -4 16 14 24 17 33 8 17 -17 1 -45 -22
-39 -11 3 -18 1 -14 -4 10 -17 43 -9 49 11 7 23 -10 50 -31 50 -7 0 -19 -10
-25 -22z"/>
<path d="M9292 364 c-16 -28 -3 -54 27 -53 23 2 24 2 4 6 -29 6 -30 23 -2 23
15 0 19 4 15 16 -3 9 -6 18 -6 20 0 11 -30 2 -38 -12z"/>
<path d="M9365 369 c-11 -17 1 -21 15 -4 8 9 8 15 2 15 -6 0 -14 -5 -17 -11z"/>
<path d="M8391 342 c-1 -29 2 -33 21 -30 12 2 23 9 24 16 1 7 0 8 -3 2 -10
-20 -32 -9 -36 18 -4 25 -4 24 -6 -6z"/>
<path d="M9040 332 c0 -12 19 -26 26 -19 2 2 -2 10 -11 17 -9 8 -15 8 -15 2z"/>
<path d="M8982 180 c0 -36 2 -47 7 -31 9 35 29 37 34 4 4 -22 5 -20 3 7 -1 24
-6 35 -16 35 -8 0 -18 9 -22 20 -3 11 -6 -4 -6 -35z"/>
<path d="M8663 203 c-4 -11 1 -22 15 -31 28 -18 29 -36 2 -29 -11 3 -20 1 -20
-4 0 -5 9 -9 20 -9 30 0 37 28 11 46 -26 18 -27 31 -3 37 16 4 16 5 -1 6 -10
0 -21 -7 -24 -16z"/>
<path d="M8872 173 c2 -20 9 -38 16 -39 7 -1 8 0 2 3 -13 6 -13 43 0 43 16 0
12 17 -6 24 -12 5 -15 -1 -12 -31z"/>
<path d="M8925 190 c-3 -5 1 -10 9 -10 9 0 16 5 16 10 0 6 -4 10 -9 10 -6 0
-13 -4 -16 -10z"/>
<path d="M8760 174 c0 -8 5 -12 10 -9 6 3 10 10 10 16 0 5 -4 9 -10 9 -5 0
-10 -7 -10 -16z"/>
<path d="M8800 177 c0 -9 -4 -17 -10 -17 -5 0 -10 -7 -10 -15 0 -8 4 -15 9
-15 10 0 25 50 16 58 -3 3 -5 -2 -5 -11z"/>
<path d="M8842 160 c0 -19 2 -27 5 -17 2 9 2 25 0 35 -3 9 -5 1 -5 -18z"/>
<path d="M8914 157 c3 -10 6 -21 6 -23 0 -2 10 -4 23 -3 14 0 17 2 7 6 -8 3
-21 13 -29 22 -12 15 -13 14 -7 -2z"/>
<path d="M8740 145 c0 -8 4 -15 10 -15 5 0 7 7 4 15 -4 8 -8 15 -10 15 -2 0
-4 -7 -4 -15z"/>
</g>
</svg>
